ISO-10303-21;
HEADER;
/* Generated by software containing ST-Developer
 * from STEP Tools, Inc. (www.steptools.com) 
 */

FILE_DESCRIPTION(
/* description */ (''),
/* implementation_level */ '2;1');

FILE_NAME(
/* name */ '1603A3.step',
/* time_stamp */ '2026-03-16T15:06:50-04:00',
/* author */ (''),
/* organization */ (''),
/* preprocessor_version */ 'ST-DEVELOPER v20.1',
/* originating_system */ 'Autodesk Translation Framework v14.24.0.0',
/* authorisation */ '');

FILE_SCHEMA (('AUTOMOTIVE_DESIGN { 1 0 10303 214 3 1 1 }'));
ENDSEC;

DATA;
#10=MECHANICAL_DESIGN_GEOMETRIC_PRESENTATION_REPRESENTATION('',(#13,#14,
#15),#1380);
#11=SHAPE_REPRESENTATION_RELATIONSHIP('SRR','None',#1390,#12);
#12=ADVANCED_BREP_SHAPE_REPRESENTATION('',(#16,#17,#18),#1379);
#13=STYLED_ITEM('',(#1399),#16);
#14=STYLED_ITEM('',(#1399),#17);
#15=STYLED_ITEM('',(#1399),#18);
#16=MANIFOLD_SOLID_BREP('Body1',#815);
#17=MANIFOLD_SOLID_BREP('Body2',#816);
#18=MANIFOLD_SOLID_BREP('Body3',#817);
#19=FACE_BOUND('',#114,.T.);
#20=FACE_BOUND('',#115,.T.);
#21=FACE_BOUND('',#118,.T.);
#22=FACE_BOUND('',#119,.T.);
#23=FACE_BOUND('',#143,.T.);
#24=FACE_BOUND('',#144,.T.);
#25=FACE_BOUND('',#147,.T.);
#26=FACE_BOUND('',#148,.T.);
#27=PLANE('',#853);
#28=PLANE('',#854);
#29=PLANE('',#855);
#30=PLANE('',#856);
#31=PLANE('',#857);
#32=PLANE('',#858);
#33=PLANE('',#859);
#34=PLANE('',#860);
#35=PLANE('',#861);
#36=PLANE('',#862);
#37=PLANE('',#863);
#38=PLANE('',#864);
#39=PLANE('',#873);
#40=PLANE('',#874);
#41=PLANE('',#897);
#42=PLANE('',#898);
#43=PLANE('',#899);
#44=PLANE('',#900);
#45=PLANE('',#901);
#46=PLANE('',#902);
#47=PLANE('',#903);
#48=PLANE('',#904);
#49=PLANE('',#905);
#50=PLANE('',#906);
#51=PLANE('',#907);
#52=PLANE('',#908);
#53=CONICAL_SURFACE('',#837,0.058,0.715584993317677);
#54=CONICAL_SURFACE('',#839,0.058,0.715584993317677);
#55=CONICAL_SURFACE('',#865,0.03168,0.785398163397463);
#56=CONICAL_SURFACE('',#868,0.033,0.785398163397437);
#57=CONICAL_SURFACE('',#881,0.058,0.715584993317677);
#58=CONICAL_SURFACE('',#883,0.058,0.715584993317677);
#59=FACE_OUTER_BOUND('',#104,.T.);
#60=FACE_OUTER_BOUND('',#105,.T.);
#61=FACE_OUTER_BOUND('',#106,.T.);
#62=FACE_OUTER_BOUND('',#107,.T.);
#63=FACE_OUTER_BOUND('',#108,.T.);
#64=FACE_OUTER_BOUND('',#109,.T.);
#65=FACE_OUTER_BOUND('',#110,.T.);
#66=FACE_OUTER_BOUND('',#111,.T.);
#67=FACE_OUTER_BOUND('',#112,.T.);
#68=FACE_OUTER_BOUND('',#113,.T.);
#69=FACE_OUTER_BOUND('',#116,.T.);
#70=FACE_OUTER_BOUND('',#117,.T.);
#71=FACE_OUTER_BOUND('',#120,.T.);
#72=FACE_OUTER_BOUND('',#121,.T.);
#73=FACE_OUTER_BOUND('',#122,.T.);
#74=FACE_OUTER_BOUND('',#123,.T.);
#75=FACE_OUTER_BOUND('',#124,.T.);
#76=FACE_OUTER_BOUND('',#125,.T.);
#77=FACE_OUTER_BOUND('',#126,.T.);
#78=FACE_OUTER_BOUND('',#127,.T.);
#79=FACE_OUTER_BOUND('',#128,.T.);
#80=FACE_OUTER_BOUND('',#129,.T.);
#81=FACE_OUTER_BOUND('',#130,.T.);
#82=FACE_OUTER_BOUND('',#131,.T.);
#83=FACE_OUTER_BOUND('',#132,.T.);
#84=FACE_OUTER_BOUND('',#133,.T.);
#85=FACE_OUTER_BOUND('',#134,.T.);
#86=FACE_OUTER_BOUND('',#135,.T.);
#87=FACE_OUTER_BOUND('',#136,.T.);
#88=FACE_OUTER_BOUND('',#137,.T.);
#89=FACE_OUTER_BOUND('',#138,.T.);
#90=FACE_OUTER_BOUND('',#139,.T.);
#91=FACE_OUTER_BOUND('',#140,.T.);
#92=FACE_OUTER_BOUND('',#141,.T.);
#93=FACE_OUTER_BOUND('',#142,.T.);
#94=FACE_OUTER_BOUND('',#145,.T.);
#95=FACE_OUTER_BOUND('',#146,.T.);
#96=FACE_OUTER_BOUND('',#149,.T.);
#97=FACE_OUTER_BOUND('',#150,.T.);
#98=FACE_OUTER_BOUND('',#151,.T.);
#99=FACE_OUTER_BOUND('',#152,.T.);
#100=FACE_OUTER_BOUND('',#153,.T.);
#101=FACE_OUTER_BOUND('',#154,.T.);
#102=FACE_OUTER_BOUND('',#155,.T.);
#103=FACE_OUTER_BOUND('',#156,.T.);
#104=EDGE_LOOP('',(#533,#534,#535,#536));
#105=EDGE_LOOP('',(#537,#538,#539,#540));
#106=EDGE_LOOP('',(#541,#542,#543,#544));
#107=EDGE_LOOP('',(#545,#546,#547,#548));
#108=EDGE_LOOP('',(#549,#550,#551,#552));
#109=EDGE_LOOP('',(#553,#554,#555,#556));
#110=EDGE_LOOP('',(#557,#558,#559,#560));
#111=EDGE_LOOP('',(#561,#562,#563,#564));
#112=EDGE_LOOP('',(#565,#566,#567,#568));
#113=EDGE_LOOP('',(#569,#570,#571,#572,#573,#574,#575,#576,#577,#578));
#114=EDGE_LOOP('',(#579));
#115=EDGE_LOOP('',(#580));
#116=EDGE_LOOP('',(#581,#582,#583,#584));
#117=EDGE_LOOP('',(#585,#586,#587,#588,#589,#590,#591,#592,#593,#594));
#118=EDGE_LOOP('',(#595));
#119=EDGE_LOOP('',(#596));
#120=EDGE_LOOP('',(#597,#598,#599,#600));
#121=EDGE_LOOP('',(#601,#602,#603,#604));
#122=EDGE_LOOP('',(#605,#606,#607,#608,#609,#610));
#123=EDGE_LOOP('',(#611,#612,#613,#614));
#124=EDGE_LOOP('',(#615,#616,#617,#618,#619,#620));
#125=EDGE_LOOP('',(#621,#622,#623,#624,#625,#626));
#126=EDGE_LOOP('',(#627,#628,#629,#630,#631,#632));
#127=EDGE_LOOP('',(#633,#634,#635,#636));
#128=EDGE_LOOP('',(#637,#638,#639,#640));
#129=EDGE_LOOP('',(#641,#642,#643,#644,#645));
#130=EDGE_LOOP('',(#646,#647,#648,#649,#650));
#131=EDGE_LOOP('',(#651));
#132=EDGE_LOOP('',(#652));
#133=EDGE_LOOP('',(#653,#654,#655,#656));
#134=EDGE_LOOP('',(#657,#658,#659,#660));
#135=EDGE_LOOP('',(#661,#662,#663,#664));
#136=EDGE_LOOP('',(#665,#666,#667,#668));
#137=EDGE_LOOP('',(#669,#670,#671,#672));
#138=EDGE_LOOP('',(#673,#674,#675,#676));
#139=EDGE_LOOP('',(#677,#678,#679,#680));
#140=EDGE_LOOP('',(#681,#682,#683,#684));
#141=EDGE_LOOP('',(#685,#686,#687,#688));
#142=EDGE_LOOP('',(#689,#690,#691,#692,#693,#694,#695,#696,#697,#698));
#143=EDGE_LOOP('',(#699));
#144=EDGE_LOOP('',(#700));
#145=EDGE_LOOP('',(#701,#702,#703,#704));
#146=EDGE_LOOP('',(#705,#706,#707,#708,#709,#710,#711,#712,#713,#714));
#147=EDGE_LOOP('',(#715));
#148=EDGE_LOOP('',(#716));
#149=EDGE_LOOP('',(#717,#718,#719,#720));
#150=EDGE_LOOP('',(#721,#722,#723,#724));
#151=EDGE_LOOP('',(#725,#726,#727,#728,#729,#730));
#152=EDGE_LOOP('',(#731,#732,#733,#734));
#153=EDGE_LOOP('',(#735,#736,#737,#738,#739,#740));
#154=EDGE_LOOP('',(#741,#742,#743,#744,#745,#746));
#155=EDGE_LOOP('',(#747,#748,#749,#750,#751,#752));
#156=EDGE_LOOP('',(#753,#754,#755,#756));
#157=LINE('',#1151,#236);
#158=LINE('',#1157,#237);
#159=LINE('',#1161,#238);
#160=LINE('',#1165,#239);
#161=LINE('',#1172,#240);
#162=LINE('',#1175,#241);
#163=LINE('',#1181,#242);
#164=LINE('',#1184,#243);
#165=LINE('',#1190,#244);
#166=LINE('',#1193,#245);
#167=LINE('',#1199,#246);
#168=LINE('',#1202,#247);
#169=LINE('',#1204,#248);
#170=LINE('',#1205,#249);
#171=LINE('',#1209,#250);
#172=LINE('',#1211,#251);
#173=LINE('',#1212,#252);
#174=LINE('',#1214,#253);
#175=LINE('',#1216,#254);
#176=LINE('',#1217,#255);
#177=LINE('',#1219,#256);
#178=LINE('',#1220,#257);
#179=LINE('',#1223,#258);
#180=LINE('',#1225,#259);
#181=LINE('',#1226,#260);
#182=LINE('',#1229,#261);
#183=LINE('',#1231,#262);
#184=LINE('',#1232,#263);
#185=LINE('',#1233,#264);
#186=LINE('',#1235,#265);
#187=LINE('',#1237,#266);
#188=LINE('',#1238,#267);
#189=LINE('',#1240,#268);
#190=LINE('',#1241,#269);
#191=LINE('',#1243,#270);
#192=LINE('',#1246,#271);
#193=LINE('',#1247,#272);
#194=LINE('',#1251,#273);
#195=LINE('',#1257,#274);
#196=LINE('',#1265,#275);
#197=LINE('',#1268,#276);
#198=LINE('',#1275,#277);
#199=LINE('',#1281,#278);
#200=LINE('',#1285,#279);
#201=LINE('',#1289,#280);
#202=LINE('',#1296,#281);
#203=LINE('',#1299,#282);
#204=LINE('',#1305,#283);
#205=LINE('',#1308,#284);
#206=LINE('',#1314,#285);
#207=LINE('',#1317,#286);
#208=LINE('',#1323,#287);
#209=LINE('',#1326,#288);
#210=LINE('',#1328,#289);
#211=LINE('',#1329,#290);
#212=LINE('',#1333,#291);
#213=LINE('',#1335,#292);
#214=LINE('',#1336,#293);
#215=LINE('',#1338,#294);
#216=LINE('',#1340,#295);
#217=LINE('',#1341,#296);
#218=LINE('',#1343,#297);
#219=LINE('',#1344,#298);
#220=LINE('',#1347,#299);
#221=LINE('',#1349,#300);
#222=LINE('',#1350,#301);
#223=LINE('',#1353,#302);
#224=LINE('',#1355,#303);
#225=LINE('',#1356,#304);
#226=LINE('',#1357,#305);
#227=LINE('',#1359,#306);
#228=LINE('',#1361,#307);
#229=LINE('',#1362,#308);
#230=LINE('',#1364,#309);
#231=LINE('',#1365,#310);
#232=LINE('',#1367,#311);
#233=LINE('',#1370,#312);
#234=LINE('',#1371,#313);
#235=LINE('',#1375,#314);
#236=VECTOR('',#915,0.043);
#237=VECTOR('',#922,0.043);
#238=VECTOR('',#927,0.058);
#239=VECTOR('',#932,0.058);
#240=VECTOR('',#939,39.3700787401575);
#241=VECTOR('',#942,39.3700787401575);
#242=VECTOR('',#947,39.3700787401575);
#243=VECTOR('',#950,39.3700787401575);
#244=VECTOR('',#955,39.3700787401575);
#245=VECTOR('',#958,39.3700787401575);
#246=VECTOR('',#963,39.3700787401575);
#247=VECTOR('',#966,39.3700787401575);
#248=VECTOR('',#969,39.3700787401575);
#249=VECTOR('',#970,39.3700787401575);
#250=VECTOR('',#973,39.3700787401575);
#251=VECTOR('',#974,39.3700787401575);
#252=VECTOR('',#975,39.3700787401575);
#253=VECTOR('',#976,39.3700787401575);
#254=VECTOR('',#977,39.3700787401575);
#255=VECTOR('',#978,39.3700787401575);
#256=VECTOR('',#979,39.3700787401575);
#257=VECTOR('',#980,39.3700787401575);
#258=VECTOR('',#983,39.3700787401575);
#259=VECTOR('',#984,39.3700787401575);
#260=VECTOR('',#985,39.3700787401575);
#261=VECTOR('',#988,39.3700787401575);
#262=VECTOR('',#989,39.3700787401575);
#263=VECTOR('',#990,39.3700787401575);
#264=VECTOR('',#991,39.3700787401575);
#265=VECTOR('',#992,39.3700787401575);
#266=VECTOR('',#993,39.3700787401575);
#267=VECTOR('',#994,39.3700787401575);
#268=VECTOR('',#997,39.3700787401575);
#269=VECTOR('',#998,39.3700787401575);
#270=VECTOR('',#1001,39.3700787401575);
#271=VECTOR('',#1006,39.3700787401575);
#272=VECTOR('',#1007,39.3700787401575);
#273=VECTOR('',#1014,39.3700787401575);
#274=VECTOR('',#1021,0.03168);
#275=VECTOR('',#1030,0.033);
#276=VECTOR('',#1035,0.033);
#277=VECTOR('',#1044,0.043);
#278=VECTOR('',#1051,0.043);
#279=VECTOR('',#1056,0.058);
#280=VECTOR('',#1061,0.058);
#281=VECTOR('',#1068,39.3700787401575);
#282=VECTOR('',#1071,39.3700787401575);
#283=VECTOR('',#1076,39.3700787401575);
#284=VECTOR('',#1079,39.3700787401575);
#285=VECTOR('',#1084,39.3700787401575);
#286=VECTOR('',#1087,39.3700787401575);
#287=VECTOR('',#1092,39.3700787401575);
#288=VECTOR('',#1095,39.3700787401575);
#289=VECTOR('',#1098,39.3700787401575);
#290=VECTOR('',#1099,39.3700787401575);
#291=VECTOR('',#1102,39.3700787401575);
#292=VECTOR('',#1103,39.3700787401575);
#293=VECTOR('',#1104,39.3700787401575);
#294=VECTOR('',#1105,39.3700787401575);
#295=VECTOR('',#1106,39.3700787401575);
#296=VECTOR('',#1107,39.3700787401575);
#297=VECTOR('',#1108,39.3700787401575);
#298=VECTOR('',#1109,39.3700787401575);
#299=VECTOR('',#1112,39.3700787401575);
#300=VECTOR('',#1113,39.3700787401575);
#301=VECTOR('',#1114,39.3700787401575);
#302=VECTOR('',#1117,39.3700787401575);
#303=VECTOR('',#1118,39.3700787401575);
#304=VECTOR('',#1119,39.3700787401575);
#305=VECTOR('',#1120,39.3700787401575);
#306=VECTOR('',#1121,39.3700787401575);
#307=VECTOR('',#1122,39.3700787401575);
#308=VECTOR('',#1123,39.3700787401575);
#309=VECTOR('',#1126,39.3700787401575);
#310=VECTOR('',#1127,39.3700787401575);
#311=VECTOR('',#1130,39.3700787401575);
#312=VECTOR('',#1135,39.3700787401575);
#313=VECTOR('',#1136,39.3700787401575);
#314=VECTOR('',#1143,39.3700787401575);
#315=CIRCLE('',#832,0.043);
#316=CIRCLE('',#833,0.043);
#317=CIRCLE('',#835,0.043);
#318=CIRCLE('',#836,0.043);
#319=CIRCLE('',#838,0.058);
#320=CIRCLE('',#840,0.058);
#321=CIRCLE('',#842,0.0580000000000032);
#322=CIRCLE('',#843,0.0580000000000032);
#323=CIRCLE('',#845,0.033);
#324=CIRCLE('',#846,0.033);
#325=CIRCLE('',#848,0.033);
#326=CIRCLE('',#849,0.033);
#327=CIRCLE('',#851,0.0580000000000032);
#328=CIRCLE('',#852,0.0580000000000032);
#329=CIRCLE('',#866,0.033);
#330=CIRCLE('',#867,0.03168);
#331=CIRCLE('',#869,0.033);
#332=CIRCLE('',#870,0.033);
#333=CIRCLE('',#871,0.0316799999999998);
#334=CIRCLE('',#876,0.043);
#335=CIRCLE('',#877,0.043);
#336=CIRCLE('',#879,0.043);
#337=CIRCLE('',#880,0.043);
#338=CIRCLE('',#882,0.058);
#339=CIRCLE('',#884,0.058);
#340=CIRCLE('',#886,0.0580000000000032);
#341=CIRCLE('',#887,0.0580000000000032);
#342=CIRCLE('',#889,0.033);
#343=CIRCLE('',#890,0.033);
#344=CIRCLE('',#892,0.033);
#345=CIRCLE('',#893,0.033);
#346=CIRCLE('',#895,0.0580000000000032);
#347=CIRCLE('',#896,0.0580000000000032);
#348=VERTEX_POINT('',#1148);
#349=VERTEX_POINT('',#1150);
#350=VERTEX_POINT('',#1154);
#351=VERTEX_POINT('',#1156);
#352=VERTEX_POINT('',#1160);
#353=VERTEX_POINT('',#1164);
#354=VERTEX_POINT('',#1168);
#355=VERTEX_POINT('',#1169);
#356=VERTEX_POINT('',#1171);
#357=VERTEX_POINT('',#1173);
#358=VERTEX_POINT('',#1177);
#359=VERTEX_POINT('',#1178);
#360=VERTEX_POINT('',#1180);
#361=VERTEX_POINT('',#1182);
#362=VERTEX_POINT('',#1186);
#363=VERTEX_POINT('',#1187);
#364=VERTEX_POINT('',#1189);
#365=VERTEX_POINT('',#1191);
#366=VERTEX_POINT('',#1195);
#367=VERTEX_POINT('',#1196);
#368=VERTEX_POINT('',#1198);
#369=VERTEX_POINT('',#1200);
#370=VERTEX_POINT('',#1207);
#371=VERTEX_POINT('',#1208);
#372=VERTEX_POINT('',#1210);
#373=VERTEX_POINT('',#1213);
#374=VERTEX_POINT('',#1215);
#375=VERTEX_POINT('',#1218);
#376=VERTEX_POINT('',#1222);
#377=VERTEX_POINT('',#1224);
#378=VERTEX_POINT('',#1228);
#379=VERTEX_POINT('',#1230);
#380=VERTEX_POINT('',#1234);
#381=VERTEX_POINT('',#1236);
#382=VERTEX_POINT('',#1254);
#383=VERTEX_POINT('',#1256);
#384=VERTEX_POINT('',#1260);
#385=VERTEX_POINT('',#1261);
#386=VERTEX_POINT('',#1264);
#387=VERTEX_POINT('',#1272);
#388=VERTEX_POINT('',#1274);
#389=VERTEX_POINT('',#1278);
#390=VERTEX_POINT('',#1280);
#391=VERTEX_POINT('',#1284);
#392=VERTEX_POINT('',#1288);
#393=VERTEX_POINT('',#1292);
#394=VERTEX_POINT('',#1293);
#395=VERTEX_POINT('',#1295);
#396=VERTEX_POINT('',#1297);
#397=VERTEX_POINT('',#1301);
#398=VERTEX_POINT('',#1302);
#399=VERTEX_POINT('',#1304);
#400=VERTEX_POINT('',#1306);
#401=VERTEX_POINT('',#1310);
#402=VERTEX_POINT('',#1311);
#403=VERTEX_POINT('',#1313);
#404=VERTEX_POINT('',#1315);
#405=VERTEX_POINT('',#1319);
#406=VERTEX_POINT('',#1320);
#407=VERTEX_POINT('',#1322);
#408=VERTEX_POINT('',#1324);
#409=VERTEX_POINT('',#1331);
#410=VERTEX_POINT('',#1332);
#411=VERTEX_POINT('',#1334);
#412=VERTEX_POINT('',#1337);
#413=VERTEX_POINT('',#1339);
#414=VERTEX_POINT('',#1342);
#415=VERTEX_POINT('',#1346);
#416=VERTEX_POINT('',#1348);
#417=VERTEX_POINT('',#1352);
#418=VERTEX_POINT('',#1354);
#419=VERTEX_POINT('',#1358);
#420=VERTEX_POINT('',#1360);
#421=EDGE_CURVE('',#348,#348,#315,.T.);
#422=EDGE_CURVE('',#348,#349,#157,.T.);
#423=EDGE_CURVE('',#349,#349,#316,.T.);
#424=EDGE_CURVE('',#350,#350,#317,.T.);
#425=EDGE_CURVE('',#350,#351,#158,.T.);
#426=EDGE_CURVE('',#351,#351,#318,.T.);
#427=EDGE_CURVE('',#351,#352,#159,.T.);
#428=EDGE_CURVE('',#352,#352,#319,.T.);
#429=EDGE_CURVE('',#349,#353,#160,.T.);
#430=EDGE_CURVE('',#353,#353,#320,.T.);
#431=EDGE_CURVE('',#354,#355,#321,.T.);
#432=EDGE_CURVE('',#355,#356,#161,.T.);
#433=EDGE_CURVE('',#356,#357,#322,.T.);
#434=EDGE_CURVE('',#354,#357,#162,.T.);
#435=EDGE_CURVE('',#358,#359,#323,.T.);
#436=EDGE_CURVE('',#359,#360,#163,.T.);
#437=EDGE_CURVE('',#360,#361,#324,.T.);
#438=EDGE_CURVE('',#358,#361,#164,.T.);
#439=EDGE_CURVE('',#362,#363,#325,.T.);
#440=EDGE_CURVE('',#363,#364,#165,.T.);
#441=EDGE_CURVE('',#364,#365,#326,.T.);
#442=EDGE_CURVE('',#362,#365,#166,.T.);
#443=EDGE_CURVE('',#366,#367,#327,.T.);
#444=EDGE_CURVE('',#367,#368,#167,.T.);
#445=EDGE_CURVE('',#368,#369,#328,.T.);
#446=EDGE_CURVE('',#366,#369,#168,.T.);
#447=EDGE_CURVE('',#363,#366,#169,.T.);
#448=EDGE_CURVE('',#369,#364,#170,.T.);
#449=EDGE_CURVE('',#370,#371,#171,.T.);
#450=EDGE_CURVE('',#370,#372,#172,.T.);
#451=EDGE_CURVE('',#372,#362,#173,.T.);
#452=EDGE_CURVE('',#365,#373,#174,.T.);
#453=EDGE_CURVE('',#373,#374,#175,.T.);
#454=EDGE_CURVE('',#374,#358,#176,.T.);
#455=EDGE_CURVE('',#361,#375,#177,.T.);
#456=EDGE_CURVE('',#371,#375,#178,.T.);
#457=EDGE_CURVE('',#375,#376,#179,.T.);
#458=EDGE_CURVE('',#377,#376,#180,.T.);
#459=EDGE_CURVE('',#371,#377,#181,.T.);
#460=EDGE_CURVE('',#367,#378,#182,.T.);
#461=EDGE_CURVE('',#378,#379,#183,.T.);
#462=EDGE_CURVE('',#377,#379,#184,.T.);
#463=EDGE_CURVE('',#376,#356,#185,.T.);
#464=EDGE_CURVE('',#355,#380,#186,.T.);
#465=EDGE_CURVE('',#380,#381,#187,.T.);
#466=EDGE_CURVE('',#381,#368,#188,.T.);
#467=EDGE_CURVE('',#359,#354,#189,.T.);
#468=EDGE_CURVE('',#357,#360,#190,.T.);
#469=EDGE_CURVE('',#379,#370,#191,.T.);
#470=EDGE_CURVE('',#381,#373,#192,.T.);
#471=EDGE_CURVE('',#380,#374,#193,.T.);
#472=EDGE_CURVE('',#378,#372,#194,.T.);
#473=EDGE_CURVE('',#382,#382,#329,.T.);
#474=EDGE_CURVE('',#382,#383,#195,.T.);
#475=EDGE_CURVE('',#383,#383,#330,.T.);
#476=EDGE_CURVE('',#384,#385,#331,.T.);
#477=EDGE_CURVE('',#385,#384,#332,.T.);
#478=EDGE_CURVE('',#385,#386,#196,.T.);
#479=EDGE_CURVE('',#386,#386,#333,.T.);
#480=EDGE_CURVE('',#384,#382,#197,.T.);
#481=EDGE_CURVE('',#387,#387,#334,.T.);
#482=EDGE_CURVE('',#387,#388,#198,.T.);
#483=EDGE_CURVE('',#388,#388,#335,.T.);
#484=EDGE_CURVE('',#389,#389,#336,.T.);
#485=EDGE_CURVE('',#389,#390,#199,.T.);
#486=EDGE_CURVE('',#390,#390,#337,.T.);
#487=EDGE_CURVE('',#390,#391,#200,.T.);
#488=EDGE_CURVE('',#391,#391,#338,.T.);
#489=EDGE_CURVE('',#388,#392,#201,.T.);
#490=EDGE_CURVE('',#392,#392,#339,.T.);
#491=EDGE_CURVE('',#393,#394,#340,.T.);
#492=EDGE_CURVE('',#394,#395,#202,.T.);
#493=EDGE_CURVE('',#395,#396,#341,.T.);
#494=EDGE_CURVE('',#393,#396,#203,.T.);
#495=EDGE_CURVE('',#397,#398,#342,.T.);
#496=EDGE_CURVE('',#398,#399,#204,.T.);
#497=EDGE_CURVE('',#399,#400,#343,.T.);
#498=EDGE_CURVE('',#397,#400,#205,.T.);
#499=EDGE_CURVE('',#401,#402,#344,.T.);
#500=EDGE_CURVE('',#402,#403,#206,.T.);
#501=EDGE_CURVE('',#403,#404,#345,.T.);
#502=EDGE_CURVE('',#401,#404,#207,.T.);
#503=EDGE_CURVE('',#405,#406,#346,.T.);
#504=EDGE_CURVE('',#406,#407,#208,.T.);
#505=EDGE_CURVE('',#407,#408,#347,.T.);
#506=EDGE_CURVE('',#405,#408,#209,.T.);
#507=EDGE_CURVE('',#402,#405,#210,.T.);
#508=EDGE_CURVE('',#408,#403,#211,.T.);
#509=EDGE_CURVE('',#409,#410,#212,.T.);
#510=EDGE_CURVE('',#409,#411,#213,.T.);
#511=EDGE_CURVE('',#411,#401,#214,.T.);
#512=EDGE_CURVE('',#404,#412,#215,.T.);
#513=EDGE_CURVE('',#412,#413,#216,.T.);
#514=EDGE_CURVE('',#413,#397,#217,.T.);
#515=EDGE_CURVE('',#400,#414,#218,.T.);
#516=EDGE_CURVE('',#410,#414,#219,.T.);
#517=EDGE_CURVE('',#414,#415,#220,.T.);
#518=EDGE_CURVE('',#416,#415,#221,.T.);
#519=EDGE_CURVE('',#410,#416,#222,.T.);
#520=EDGE_CURVE('',#406,#417,#223,.T.);
#521=EDGE_CURVE('',#417,#418,#224,.T.);
#522=EDGE_CURVE('',#416,#418,#225,.T.);
#523=EDGE_CURVE('',#415,#395,#226,.T.);
#524=EDGE_CURVE('',#394,#419,#227,.T.);
#525=EDGE_CURVE('',#419,#420,#228,.T.);
#526=EDGE_CURVE('',#420,#407,#229,.T.);
#527=EDGE_CURVE('',#398,#393,#230,.T.);
#528=EDGE_CURVE('',#396,#399,#231,.T.);
#529=EDGE_CURVE('',#418,#409,#232,.T.);
#530=EDGE_CURVE('',#420,#412,#233,.T.);
#531=EDGE_CURVE('',#419,#413,#234,.T.);
#532=EDGE_CURVE('',#417,#411,#235,.T.);
#533=ORIENTED_EDGE('',*,*,#421,.F.);
#534=ORIENTED_EDGE('',*,*,#422,.T.);
#535=ORIENTED_EDGE('',*,*,#423,.F.);
#536=ORIENTED_EDGE('',*,*,#422,.F.);
#537=ORIENTED_EDGE('',*,*,#424,.F.);
#538=ORIENTED_EDGE('',*,*,#425,.T.);
#539=ORIENTED_EDGE('',*,*,#426,.F.);
#540=ORIENTED_EDGE('',*,*,#425,.F.);
#541=ORIENTED_EDGE('',*,*,#426,.T.);
#542=ORIENTED_EDGE('',*,*,#427,.T.);
#543=ORIENTED_EDGE('',*,*,#428,.T.);
#544=ORIENTED_EDGE('',*,*,#427,.F.);
#545=ORIENTED_EDGE('',*,*,#423,.T.);
#546=ORIENTED_EDGE('',*,*,#429,.T.);
#547=ORIENTED_EDGE('',*,*,#430,.T.);
#548=ORIENTED_EDGE('',*,*,#429,.F.);
#549=ORIENTED_EDGE('',*,*,#431,.T.);
#550=ORIENTED_EDGE('',*,*,#432,.T.);
#551=ORIENTED_EDGE('',*,*,#433,.T.);
#552=ORIENTED_EDGE('',*,*,#434,.F.);
#553=ORIENTED_EDGE('',*,*,#435,.T.);
#554=ORIENTED_EDGE('',*,*,#436,.T.);
#555=ORIENTED_EDGE('',*,*,#437,.T.);
#556=ORIENTED_EDGE('',*,*,#438,.F.);
#557=ORIENTED_EDGE('',*,*,#439,.T.);
#558=ORIENTED_EDGE('',*,*,#440,.T.);
#559=ORIENTED_EDGE('',*,*,#441,.T.);
#560=ORIENTED_EDGE('',*,*,#442,.F.);
#561=ORIENTED_EDGE('',*,*,#443,.T.);
#562=ORIENTED_EDGE('',*,*,#444,.T.);
#563=ORIENTED_EDGE('',*,*,#445,.T.);
#564=ORIENTED_EDGE('',*,*,#446,.F.);
#565=ORIENTED_EDGE('',*,*,#440,.F.);
#566=ORIENTED_EDGE('',*,*,#447,.T.);
#567=ORIENTED_EDGE('',*,*,#446,.T.);
#568=ORIENTED_EDGE('',*,*,#448,.T.);
#569=ORIENTED_EDGE('',*,*,#449,.F.);
#570=ORIENTED_EDGE('',*,*,#450,.T.);
#571=ORIENTED_EDGE('',*,*,#451,.T.);
#572=ORIENTED_EDGE('',*,*,#442,.T.);
#573=ORIENTED_EDGE('',*,*,#452,.T.);
#574=ORIENTED_EDGE('',*,*,#453,.T.);
#575=ORIENTED_EDGE('',*,*,#454,.T.);
#576=ORIENTED_EDGE('',*,*,#438,.T.);
#577=ORIENTED_EDGE('',*,*,#455,.T.);
#578=ORIENTED_EDGE('',*,*,#456,.F.);
#579=ORIENTED_EDGE('',*,*,#428,.F.);
#580=ORIENTED_EDGE('',*,*,#430,.F.);
#581=ORIENTED_EDGE('',*,*,#457,.T.);
#582=ORIENTED_EDGE('',*,*,#458,.F.);
#583=ORIENTED_EDGE('',*,*,#459,.F.);
#584=ORIENTED_EDGE('',*,*,#456,.T.);
#585=ORIENTED_EDGE('',*,*,#460,.T.);
#586=ORIENTED_EDGE('',*,*,#461,.T.);
#587=ORIENTED_EDGE('',*,*,#462,.F.);
#588=ORIENTED_EDGE('',*,*,#458,.T.);
#589=ORIENTED_EDGE('',*,*,#463,.T.);
#590=ORIENTED_EDGE('',*,*,#432,.F.);
#591=ORIENTED_EDGE('',*,*,#464,.T.);
#592=ORIENTED_EDGE('',*,*,#465,.T.);
#593=ORIENTED_EDGE('',*,*,#466,.T.);
#594=ORIENTED_EDGE('',*,*,#444,.F.);
#595=ORIENTED_EDGE('',*,*,#424,.T.);
#596=ORIENTED_EDGE('',*,*,#421,.T.);
#597=ORIENTED_EDGE('',*,*,#436,.F.);
#598=ORIENTED_EDGE('',*,*,#467,.T.);
#599=ORIENTED_EDGE('',*,*,#434,.T.);
#600=ORIENTED_EDGE('',*,*,#468,.T.);
#601=ORIENTED_EDGE('',*,*,#462,.T.);
#602=ORIENTED_EDGE('',*,*,#469,.T.);
#603=ORIENTED_EDGE('',*,*,#449,.T.);
#604=ORIENTED_EDGE('',*,*,#459,.T.);
#605=ORIENTED_EDGE('',*,*,#437,.F.);
#606=ORIENTED_EDGE('',*,*,#468,.F.);
#607=ORIENTED_EDGE('',*,*,#433,.F.);
#608=ORIENTED_EDGE('',*,*,#463,.F.);
#609=ORIENTED_EDGE('',*,*,#457,.F.);
#610=ORIENTED_EDGE('',*,*,#455,.F.);
#611=ORIENTED_EDGE('',*,*,#470,.F.);
#612=ORIENTED_EDGE('',*,*,#465,.F.);
#613=ORIENTED_EDGE('',*,*,#471,.T.);
#614=ORIENTED_EDGE('',*,*,#453,.F.);
#615=ORIENTED_EDGE('',*,*,#441,.F.);
#616=ORIENTED_EDGE('',*,*,#448,.F.);
#617=ORIENTED_EDGE('',*,*,#445,.F.);
#618=ORIENTED_EDGE('',*,*,#466,.F.);
#619=ORIENTED_EDGE('',*,*,#470,.T.);
#620=ORIENTED_EDGE('',*,*,#452,.F.);
#621=ORIENTED_EDGE('',*,*,#431,.F.);
#622=ORIENTED_EDGE('',*,*,#467,.F.);
#623=ORIENTED_EDGE('',*,*,#435,.F.);
#624=ORIENTED_EDGE('',*,*,#454,.F.);
#625=ORIENTED_EDGE('',*,*,#471,.F.);
#626=ORIENTED_EDGE('',*,*,#464,.F.);
#627=ORIENTED_EDGE('',*,*,#443,.F.);
#628=ORIENTED_EDGE('',*,*,#447,.F.);
#629=ORIENTED_EDGE('',*,*,#439,.F.);
#630=ORIENTED_EDGE('',*,*,#451,.F.);
#631=ORIENTED_EDGE('',*,*,#472,.F.);
#632=ORIENTED_EDGE('',*,*,#460,.F.);
#633=ORIENTED_EDGE('',*,*,#469,.F.);
#634=ORIENTED_EDGE('',*,*,#461,.F.);
#635=ORIENTED_EDGE('',*,*,#472,.T.);
#636=ORIENTED_EDGE('',*,*,#450,.F.);
#637=ORIENTED_EDGE('',*,*,#473,.F.);
#638=ORIENTED_EDGE('',*,*,#474,.T.);
#639=ORIENTED_EDGE('',*,*,#475,.F.);
#640=ORIENTED_EDGE('',*,*,#474,.F.);
#641=ORIENTED_EDGE('',*,*,#476,.F.);
#642=ORIENTED_EDGE('',*,*,#477,.F.);
#643=ORIENTED_EDGE('',*,*,#478,.T.);
#644=ORIENTED_EDGE('',*,*,#479,.F.);
#645=ORIENTED_EDGE('',*,*,#478,.F.);
#646=ORIENTED_EDGE('',*,*,#476,.T.);
#647=ORIENTED_EDGE('',*,*,#477,.T.);
#648=ORIENTED_EDGE('',*,*,#480,.T.);
#649=ORIENTED_EDGE('',*,*,#473,.T.);
#650=ORIENTED_EDGE('',*,*,#480,.F.);
#651=ORIENTED_EDGE('',*,*,#475,.T.);
#652=ORIENTED_EDGE('',*,*,#479,.T.);
#653=ORIENTED_EDGE('',*,*,#481,.F.);
#654=ORIENTED_EDGE('',*,*,#482,.T.);
#655=ORIENTED_EDGE('',*,*,#483,.F.);
#656=ORIENTED_EDGE('',*,*,#482,.F.);
#657=ORIENTED_EDGE('',*,*,#484,.F.);
#658=ORIENTED_EDGE('',*,*,#485,.T.);
#659=ORIENTED_EDGE('',*,*,#486,.F.);
#660=ORIENTED_EDGE('',*,*,#485,.F.);
#661=ORIENTED_EDGE('',*,*,#486,.T.);
#662=ORIENTED_EDGE('',*,*,#487,.T.);
#663=ORIENTED_EDGE('',*,*,#488,.T.);
#664=ORIENTED_EDGE('',*,*,#487,.F.);
#665=ORIENTED_EDGE('',*,*,#483,.T.);
#666=ORIENTED_EDGE('',*,*,#489,.T.);
#667=ORIENTED_EDGE('',*,*,#490,.T.);
#668=ORIENTED_EDGE('',*,*,#489,.F.);
#669=ORIENTED_EDGE('',*,*,#491,.T.);
#670=ORIENTED_EDGE('',*,*,#492,.T.);
#671=ORIENTED_EDGE('',*,*,#493,.T.);
#672=ORIENTED_EDGE('',*,*,#494,.F.);
#673=ORIENTED_EDGE('',*,*,#495,.T.);
#674=ORIENTED_EDGE('',*,*,#496,.T.);
#675=ORIENTED_EDGE('',*,*,#497,.T.);
#676=ORIENTED_EDGE('',*,*,#498,.F.);
#677=ORIENTED_EDGE('',*,*,#499,.T.);
#678=ORIENTED_EDGE('',*,*,#500,.T.);
#679=ORIENTED_EDGE('',*,*,#501,.T.);
#680=ORIENTED_EDGE('',*,*,#502,.F.);
#681=ORIENTED_EDGE('',*,*,#503,.T.);
#682=ORIENTED_EDGE('',*,*,#504,.T.);
#683=ORIENTED_EDGE('',*,*,#505,.T.);
#684=ORIENTED_EDGE('',*,*,#506,.F.);
#685=ORIENTED_EDGE('',*,*,#500,.F.);
#686=ORIENTED_EDGE('',*,*,#507,.T.);
#687=ORIENTED_EDGE('',*,*,#506,.T.);
#688=ORIENTED_EDGE('',*,*,#508,.T.);
#689=ORIENTED_EDGE('',*,*,#509,.F.);
#690=ORIENTED_EDGE('',*,*,#510,.T.);
#691=ORIENTED_EDGE('',*,*,#511,.T.);
#692=ORIENTED_EDGE('',*,*,#502,.T.);
#693=ORIENTED_EDGE('',*,*,#512,.T.);
#694=ORIENTED_EDGE('',*,*,#513,.T.);
#695=ORIENTED_EDGE('',*,*,#514,.T.);
#696=ORIENTED_EDGE('',*,*,#498,.T.);
#697=ORIENTED_EDGE('',*,*,#515,.T.);
#698=ORIENTED_EDGE('',*,*,#516,.F.);
#699=ORIENTED_EDGE('',*,*,#488,.F.);
#700=ORIENTED_EDGE('',*,*,#490,.F.);
#701=ORIENTED_EDGE('',*,*,#517,.T.);
#702=ORIENTED_EDGE('',*,*,#518,.F.);
#703=ORIENTED_EDGE('',*,*,#519,.F.);
#704=ORIENTED_EDGE('',*,*,#516,.T.);
#705=ORIENTED_EDGE('',*,*,#520,.T.);
#706=ORIENTED_EDGE('',*,*,#521,.T.);
#707=ORIENTED_EDGE('',*,*,#522,.F.);
#708=ORIENTED_EDGE('',*,*,#518,.T.);
#709=ORIENTED_EDGE('',*,*,#523,.T.);
#710=ORIENTED_EDGE('',*,*,#492,.F.);
#711=ORIENTED_EDGE('',*,*,#524,.T.);
#712=ORIENTED_EDGE('',*,*,#525,.T.);
#713=ORIENTED_EDGE('',*,*,#526,.T.);
#714=ORIENTED_EDGE('',*,*,#504,.F.);
#715=ORIENTED_EDGE('',*,*,#484,.T.);
#716=ORIENTED_EDGE('',*,*,#481,.T.);
#717=ORIENTED_EDGE('',*,*,#496,.F.);
#718=ORIENTED_EDGE('',*,*,#527,.T.);
#719=ORIENTED_EDGE('',*,*,#494,.T.);
#720=ORIENTED_EDGE('',*,*,#528,.T.);
#721=ORIENTED_EDGE('',*,*,#522,.T.);
#722=ORIENTED_EDGE('',*,*,#529,.T.);
#723=ORIENTED_EDGE('',*,*,#509,.T.);
#724=ORIENTED_EDGE('',*,*,#519,.T.);
#725=ORIENTED_EDGE('',*,*,#497,.F.);
#726=ORIENTED_EDGE('',*,*,#528,.F.);
#727=ORIENTED_EDGE('',*,*,#493,.F.);
#728=ORIENTED_EDGE('',*,*,#523,.F.);
#729=ORIENTED_EDGE('',*,*,#517,.F.);
#730=ORIENTED_EDGE('',*,*,#515,.F.);
#731=ORIENTED_EDGE('',*,*,#530,.F.);
#732=ORIENTED_EDGE('',*,*,#525,.F.);
#733=ORIENTED_EDGE('',*,*,#531,.T.);
#734=ORIENTED_EDGE('',*,*,#513,.F.);
#735=ORIENTED_EDGE('',*,*,#501,.F.);
#736=ORIENTED_EDGE('',*,*,#508,.F.);
#737=ORIENTED_EDGE('',*,*,#505,.F.);
#738=ORIENTED_EDGE('',*,*,#526,.F.);
#739=ORIENTED_EDGE('',*,*,#530,.T.);
#740=ORIENTED_EDGE('',*,*,#512,.F.);
#741=ORIENTED_EDGE('',*,*,#491,.F.);
#742=ORIENTED_EDGE('',*,*,#527,.F.);
#743=ORIENTED_EDGE('',*,*,#495,.F.);
#744=ORIENTED_EDGE('',*,*,#514,.F.);
#745=ORIENTED_EDGE('',*,*,#531,.F.);
#746=ORIENTED_EDGE('',*,*,#524,.F.);
#747=ORIENTED_EDGE('',*,*,#503,.F.);
#748=ORIENTED_EDGE('',*,*,#507,.F.);
#749=ORIENTED_EDGE('',*,*,#499,.F.);
#750=ORIENTED_EDGE('',*,*,#511,.F.);
#751=ORIENTED_EDGE('',*,*,#532,.F.);
#752=ORIENTED_EDGE('',*,*,#520,.F.);
#753=ORIENTED_EDGE('',*,*,#529,.F.);
#754=ORIENTED_EDGE('',*,*,#521,.F.);
#755=ORIENTED_EDGE('',*,*,#532,.T.);
#756=ORIENTED_EDGE('',*,*,#510,.F.);
#757=CYLINDRICAL_SURFACE('',#831,0.043);
#758=CYLINDRICAL_SURFACE('',#834,0.043);
#759=CYLINDRICAL_SURFACE('',#841,0.0580000000000032);
#760=CYLINDRICAL_SURFACE('',#844,0.033);
#761=CYLINDRICAL_SURFACE('',#847,0.033);
#762=CYLINDRICAL_SURFACE('',#850,0.0580000000000032);
#763=CYLINDRICAL_SURFACE('',#872,0.033);
#764=CYLINDRICAL_SURFACE('',#875,0.043);
#765=CYLINDRICAL_SURFACE('',#878,0.043);
#766=CYLINDRICAL_SURFACE('',#885,0.0580000000000032);
#767=CYLINDRICAL_SURFACE('',#888,0.033);
#768=CYLINDRICAL_SURFACE('',#891,0.033);
#769=CYLINDRICAL_SURFACE('',#894,0.0580000000000032);
#770=ADVANCED_FACE('',(#59),#757,.F.);
#771=ADVANCED_FACE('',(#60),#758,.F.);
#772=ADVANCED_FACE('',(#61),#53,.F.);
#773=ADVANCED_FACE('',(#62),#54,.F.);
#774=ADVANCED_FACE('',(#63),#759,.T.);
#775=ADVANCED_FACE('',(#64),#760,.F.);
#776=ADVANCED_FACE('',(#65),#761,.F.);
#777=ADVANCED_FACE('',(#66),#762,.T.);
#778=ADVANCED_FACE('',(#67),#27,.F.);
#779=ADVANCED_FACE('',(#68,#19,#20),#28,.F.);
#780=ADVANCED_FACE('',(#69),#29,.F.);
#781=ADVANCED_FACE('',(#70,#21,#22),#30,.F.);
#782=ADVANCED_FACE('',(#71),#31,.F.);
#783=ADVANCED_FACE('',(#72),#32,.F.);
#784=ADVANCED_FACE('',(#73),#33,.T.);
#785=ADVANCED_FACE('',(#74),#34,.F.);
#786=ADVANCED_FACE('',(#75),#35,.F.);
#787=ADVANCED_FACE('',(#76),#36,.F.);
#788=ADVANCED_FACE('',(#77),#37,.F.);
#789=ADVANCED_FACE('',(#78),#38,.F.);
#790=ADVANCED_FACE('',(#79),#55,.T.);
#791=ADVANCED_FACE('',(#80),#56,.T.);
#792=ADVANCED_FACE('',(#81),#763,.T.);
#793=ADVANCED_FACE('',(#82),#39,.T.);
#794=ADVANCED_FACE('',(#83),#40,.F.);
#795=ADVANCED_FACE('',(#84),#764,.F.);
#796=ADVANCED_FACE('',(#85),#765,.F.);
#797=ADVANCED_FACE('',(#86),#57,.F.);
#798=ADVANCED_FACE('',(#87),#58,.F.);
#799=ADVANCED_FACE('',(#88),#766,.T.);
#800=ADVANCED_FACE('',(#89),#767,.F.);
#801=ADVANCED_FACE('',(#90),#768,.F.);
#802=ADVANCED_FACE('',(#91),#769,.T.);
#803=ADVANCED_FACE('',(#92),#41,.F.);
#804=ADVANCED_FACE('',(#93,#23,#24),#42,.F.);
#805=ADVANCED_FACE('',(#94),#43,.F.);
#806=ADVANCED_FACE('',(#95,#25,#26),#44,.F.);
#807=ADVANCED_FACE('',(#96),#45,.F.);
#808=ADVANCED_FACE('',(#97),#46,.F.);
#809=ADVANCED_FACE('',(#98),#47,.T.);
#810=ADVANCED_FACE('',(#99),#48,.F.);
#811=ADVANCED_FACE('',(#100),#49,.F.);
#812=ADVANCED_FACE('',(#101),#50,.F.);
#813=ADVANCED_FACE('',(#102),#51,.F.);
#814=ADVANCED_FACE('',(#103),#52,.F.);
#815=CLOSED_SHELL('',(#770,#771,#772,#773,#774,#775,#776,#777,#778,#779,
#780,#781,#782,#783,#784,#785,#786,#787,#788,#789));
#816=CLOSED_SHELL('',(#790,#791,#792,#793,#794));
#817=CLOSED_SHELL('',(#795,#796,#797,#798,#799,#800,#801,#802,#803,#804,
#805,#806,#807,#808,#809,#810,#811,#812,#813,#814));
#818=DERIVED_UNIT_ELEMENT(#820,1.);
#819=DERIVED_UNIT_ELEMENT(#1384,-3.);
#820=(
MASS_UNIT()
NAMED_UNIT(*)
SI_UNIT(.KILO.,.GRAM.)
);
#821=DERIVED_UNIT((#818,#819));
#822=MEASURE_REPRESENTATION_ITEM('density measure',
POSITIVE_RATIO_MEASURE(7850.),#821);
#823=PROPERTY_DEFINITION_REPRESENTATION(#828,#825);
#824=PROPERTY_DEFINITION_REPRESENTATION(#829,#826);
#825=REPRESENTATION('material name',(#827),#1379);
#826=REPRESENTATION('density',(#822),#1379);
#827=DESCRIPTIVE_REPRESENTATION_ITEM('Steel','Steel');
#828=PROPERTY_DEFINITION('material property','material name',#1392);
#829=PROPERTY_DEFINITION('material property','density of part',#1392);
#830=AXIS2_PLACEMENT_3D('',#1146,#909,#910);
#831=AXIS2_PLACEMENT_3D('',#1147,#911,#912);
#832=AXIS2_PLACEMENT_3D('',#1149,#913,#914);
#833=AXIS2_PLACEMENT_3D('',#1152,#916,#917);
#834=AXIS2_PLACEMENT_3D('',#1153,#918,#919);
#835=AXIS2_PLACEMENT_3D('',#1155,#920,#921);
#836=AXIS2_PLACEMENT_3D('',#1158,#923,#924);
#837=AXIS2_PLACEMENT_3D('',#1159,#925,#926);
#838=AXIS2_PLACEMENT_3D('',#1162,#928,#929);
#839=AXIS2_PLACEMENT_3D('',#1163,#930,#931);
#840=AXIS2_PLACEMENT_3D('',#1166,#933,#934);
#841=AXIS2_PLACEMENT_3D('',#1167,#935,#936);
#842=AXIS2_PLACEMENT_3D('',#1170,#937,#938);
#843=AXIS2_PLACEMENT_3D('',#1174,#940,#941);
#844=AXIS2_PLACEMENT_3D('',#1176,#943,#944);
#845=AXIS2_PLACEMENT_3D('',#1179,#945,#946);
#846=AXIS2_PLACEMENT_3D('',#1183,#948,#949);
#847=AXIS2_PLACEMENT_3D('',#1185,#951,#952);
#848=AXIS2_PLACEMENT_3D('',#1188,#953,#954);
#849=AXIS2_PLACEMENT_3D('',#1192,#956,#957);
#850=AXIS2_PLACEMENT_3D('',#1194,#959,#960);
#851=AXIS2_PLACEMENT_3D('',#1197,#961,#962);
#852=AXIS2_PLACEMENT_3D('',#1201,#964,#965);
#853=AXIS2_PLACEMENT_3D('',#1203,#967,#968);
#854=AXIS2_PLACEMENT_3D('',#1206,#971,#972);
#855=AXIS2_PLACEMENT_3D('',#1221,#981,#982);
#856=AXIS2_PLACEMENT_3D('',#1227,#986,#987);
#857=AXIS2_PLACEMENT_3D('',#1239,#995,#996);
#858=AXIS2_PLACEMENT_3D('',#1242,#999,#1000);
#859=AXIS2_PLACEMENT_3D('',#1244,#1002,#1003);
#860=AXIS2_PLACEMENT_3D('',#1245,#1004,#1005);
#861=AXIS2_PLACEMENT_3D('',#1248,#1008,#1009);
#862=AXIS2_PLACEMENT_3D('',#1249,#1010,#1011);
#863=AXIS2_PLACEMENT_3D('',#1250,#1012,#1013);
#864=AXIS2_PLACEMENT_3D('',#1252,#1015,#1016);
#865=AXIS2_PLACEMENT_3D('',#1253,#1017,#1018);
#866=AXIS2_PLACEMENT_3D('',#1255,#1019,#1020);
#867=AXIS2_PLACEMENT_3D('',#1258,#1022,#1023);
#868=AXIS2_PLACEMENT_3D('',#1259,#1024,#1025);
#869=AXIS2_PLACEMENT_3D('',#1262,#1026,#1027);
#870=AXIS2_PLACEMENT_3D('',#1263,#1028,#1029);
#871=AXIS2_PLACEMENT_3D('',#1266,#1031,#1032);
#872=AXIS2_PLACEMENT_3D('',#1267,#1033,#1034);
#873=AXIS2_PLACEMENT_3D('',#1269,#1036,#1037);
#874=AXIS2_PLACEMENT_3D('',#1270,#1038,#1039);
#875=AXIS2_PLACEMENT_3D('',#1271,#1040,#1041);
#876=AXIS2_PLACEMENT_3D('',#1273,#1042,#1043);
#877=AXIS2_PLACEMENT_3D('',#1276,#1045,#1046);
#878=AXIS2_PLACEMENT_3D('',#1277,#1047,#1048);
#879=AXIS2_PLACEMENT_3D('',#1279,#1049,#1050);
#880=AXIS2_PLACEMENT_3D('',#1282,#1052,#1053);
#881=AXIS2_PLACEMENT_3D('',#1283,#1054,#1055);
#882=AXIS2_PLACEMENT_3D('',#1286,#1057,#1058);
#883=AXIS2_PLACEMENT_3D('',#1287,#1059,#1060);
#884=AXIS2_PLACEMENT_3D('',#1290,#1062,#1063);
#885=AXIS2_PLACEMENT_3D('',#1291,#1064,#1065);
#886=AXIS2_PLACEMENT_3D('',#1294,#1066,#1067);
#887=AXIS2_PLACEMENT_3D('',#1298,#1069,#1070);
#888=AXIS2_PLACEMENT_3D('',#1300,#1072,#1073);
#889=AXIS2_PLACEMENT_3D('',#1303,#1074,#1075);
#890=AXIS2_PLACEMENT_3D('',#1307,#1077,#1078);
#891=AXIS2_PLACEMENT_3D('',#1309,#1080,#1081);
#892=AXIS2_PLACEMENT_3D('',#1312,#1082,#1083);
#893=AXIS2_PLACEMENT_3D('',#1316,#1085,#1086);
#894=AXIS2_PLACEMENT_3D('',#1318,#1088,#1089);
#895=AXIS2_PLACEMENT_3D('',#1321,#1090,#1091);
#896=AXIS2_PLACEMENT_3D('',#1325,#1093,#1094);
#897=AXIS2_PLACEMENT_3D('',#1327,#1096,#1097);
#898=AXIS2_PLACEMENT_3D('',#1330,#1100,#1101);
#899=AXIS2_PLACEMENT_3D('',#1345,#1110,#1111);
#900=AXIS2_PLACEMENT_3D('',#1351,#1115,#1116);
#901=AXIS2_PLACEMENT_3D('',#1363,#1124,#1125);
#902=AXIS2_PLACEMENT_3D('',#1366,#1128,#1129);
#903=AXIS2_PLACEMENT_3D('',#1368,#1131,#1132);
#904=AXIS2_PLACEMENT_3D('',#1369,#1133,#1134);
#905=AXIS2_PLACEMENT_3D('',#1372,#1137,#1138);
#906=AXIS2_PLACEMENT_3D('',#1373,#1139,#1140);
#907=AXIS2_PLACEMENT_3D('',#1374,#1141,#1142);
#908=AXIS2_PLACEMENT_3D('',#1376,#1144,#1145);
#909=DIRECTION('axis',(0.,0.,1.));
#910=DIRECTION('refdir',(1.,0.,0.));
#911=DIRECTION('center_axis',(0.,1.,6.12323399573677E-16));
#912=DIRECTION('ref_axis',(0.,6.12323399573676E-16,-1.));
#913=DIRECTION('center_axis',(0.,1.,6.12323399573677E-16));
#914=DIRECTION('ref_axis',(0.,6.12323399573676E-16,-1.));
#915=DIRECTION('',(0.,1.,6.12323399573676E-16));
#916=DIRECTION('center_axis',(0.,-1.,-6.12323399573677E-16));
#917=DIRECTION('ref_axis',(0.,6.12323399573676E-16,-1.));
#918=DIRECTION('center_axis',(0.,1.,6.12323399573677E-16));
#919=DIRECTION('ref_axis',(0.,6.12323399573676E-16,-1.));
#920=DIRECTION('center_axis',(0.,1.,6.12323399573677E-16));
#921=DIRECTION('ref_axis',(0.,6.12323399573676E-16,-1.));
#922=DIRECTION('',(0.,1.,6.12323399573676E-16));
#923=DIRECTION('center_axis',(0.,-1.,-6.12323399573677E-16));
#924=DIRECTION('ref_axis',(0.,6.12323399573676E-16,-1.));
#925=DIRECTION('center_axis',(0.,1.,6.12323399573677E-16));
#926=DIRECTION('ref_axis',(0.,6.12323399573676E-16,-1.));
#927=DIRECTION('',(8.03440589904946E-17,0.754709580222771,0.656059028990509));
#928=DIRECTION('center_axis',(0.,1.,6.12323399573677E-16));
#929=DIRECTION('ref_axis',(0.,6.12323399573676E-16,-1.));
#930=DIRECTION('center_axis',(0.,1.,6.12323399573677E-16));
#931=DIRECTION('ref_axis',(0.,6.12323399573676E-16,-1.));
#932=DIRECTION('',(8.03440589904947E-17,0.754709580222771,0.656059028990509));
#933=DIRECTION('center_axis',(0.,1.,6.12323399573677E-16));
#934=DIRECTION('ref_axis',(0.,6.12323399573676E-16,-1.));
#935=DIRECTION('center_axis',(1.,0.,0.));
#936=DIRECTION('ref_axis',(0.,0.864443245463535,0.502730420178122));
#937=DIRECTION('center_axis',(1.,1.80255867521432E-31,-2.94380171731038E-16));
#938=DIRECTION('ref_axis',(-2.94380171731038E-16,6.12323399573678E-16,-1.));
#939=DIRECTION('',(1.,0.,0.));
#940=DIRECTION('center_axis',(-1.,0.,0.));
#941=DIRECTION('ref_axis',(0.,6.12323399573678E-16,-1.));
#942=DIRECTION('',(1.,0.,0.));
#943=DIRECTION('center_axis',(1.,0.,0.));
#944=DIRECTION('ref_axis',(0.,0.864443245463535,0.502730420178122));
#945=DIRECTION('center_axis',(-1.,-1.80255867521432E-31,2.94380171731038E-16));
#946=DIRECTION('ref_axis',(-2.94380171731038E-16,6.12323399573676E-16,-1.));
#947=DIRECTION('',(1.,0.,0.));
#948=DIRECTION('center_axis',(1.,0.,0.));
#949=DIRECTION('ref_axis',(0.,6.12323399573676E-16,-1.));
#950=DIRECTION('',(1.,0.,0.));
#951=DIRECTION('center_axis',(1.,0.,0.));
#952=DIRECTION('ref_axis',(0.,0.864443245463535,0.502730420178122));
#953=DIRECTION('center_axis',(-1.,-1.80255867521432E-31,2.94380171731038E-16));
#954=DIRECTION('ref_axis',(-2.94380171731038E-16,6.12323399573676E-16,-1.));
#955=DIRECTION('',(1.,0.,0.));
#956=DIRECTION('center_axis',(1.,1.80255867521432E-31,-2.94380171731038E-16));
#957=DIRECTION('ref_axis',(2.94380171731038E-16,-6.12323399573676E-16,1.));
#958=DIRECTION('',(1.,0.,0.));
#959=DIRECTION('center_axis',(1.,0.,0.));
#960=DIRECTION('ref_axis',(0.,0.864443245463535,0.502730420178122));
#961=DIRECTION('center_axis',(1.,1.80255867521432E-31,-2.94380171731038E-16));
#962=DIRECTION('ref_axis',(-2.94380171731038E-16,6.12323399573678E-16,-1.));
#963=DIRECTION('',(1.,0.,0.));
#964=DIRECTION('center_axis',(-1.,-1.80255867521432E-31,2.94380171731038E-16));
#965=DIRECTION('ref_axis',(2.94380171731038E-16,-6.12323399573678E-16,1.));
#966=DIRECTION('',(1.,0.,0.));
#967=DIRECTION('center_axis',(0.,0.869163832024044,-0.494524249255059));
#968=DIRECTION('ref_axis',(0.,-0.494524249255059,-0.869163832024044));
#969=DIRECTION('',(-2.55864598133645E-16,-0.494524249255059,-0.869163832024044));
#970=DIRECTION('',(2.55864598133645E-16,0.494524249255059,0.869163832024044));
#971=DIRECTION('center_axis',(0.,-1.,-6.12323399573677E-16));
#972=DIRECTION('ref_axis',(0.,-6.12323399573677E-16,1.));
#973=DIRECTION('',(0.,6.12323399573677E-16,-1.));
#974=DIRECTION('',(1.,8.36387225299515E-32,-1.36592399683213E-16));
#975=DIRECTION('',(2.94380171731038E-16,-6.12323399573677E-16,1.));
#976=DIRECTION('',(-2.94380171731038E-16,6.12323399573677E-16,-1.));
#977=DIRECTION('',(1.,8.36387225299515E-32,-1.36592399683213E-16));
#978=DIRECTION('',(2.94380171731038E-16,-6.12323399573677E-16,1.));
#979=DIRECTION('',(0.,6.12323399573677E-16,-1.));
#980=DIRECTION('',(1.,0.,0.));
#981=DIRECTION('center_axis',(0.,-6.12323399573677E-16,1.));
#982=DIRECTION('ref_axis',(1.,0.,0.));
#983=DIRECTION('',(0.,-1.,-6.12323399573677E-16));
#984=DIRECTION('',(1.,0.,0.));
#985=DIRECTION('',(0.,-1.,-6.12323399573677E-16));
#986=DIRECTION('center_axis',(0.,1.,4.98496399837666E-16));
#987=DIRECTION('ref_axis',(0.,4.98496399837666E-16,-1.));
#988=DIRECTION('',(-2.94380171731038E-16,6.12323399573677E-16,-1.));
#989=DIRECTION('',(-1.,-8.36387225299515E-32,1.36592399683213E-16));
#990=DIRECTION('',(0.,-4.98496399837666E-16,1.));
#991=DIRECTION('',(0.,-4.98496399837666E-16,1.));
#992=DIRECTION('',(-2.94380171731038E-16,6.12323399573677E-16,-1.));
#993=DIRECTION('',(-1.,-8.36387225299515E-32,1.36592399683213E-16));
#994=DIRECTION('',(2.94380171731038E-16,-6.12323399573677E-16,1.));
#995=DIRECTION('center_axis',(0.,0.869163832024044,-0.494524249255059));
#996=DIRECTION('ref_axis',(0.,-0.494524249255059,-0.869163832024044));
#997=DIRECTION('',(-2.55864598133645E-16,-0.494524249255059,-0.869163832024044));
#998=DIRECTION('',(0.,0.494524249255059,0.869163832024044));
#999=DIRECTION('center_axis',(1.,0.,0.));
#1000=DIRECTION('ref_axis',(0.,6.12323399573677E-16,-1.));
#1001=DIRECTION('',(0.,1.,6.12323399573677E-16));
#1002=DIRECTION('center_axis',(1.,0.,0.));
#1003=DIRECTION('ref_axis',(0.,6.12323399573677E-16,-1.));
#1004=DIRECTION('center_axis',(-1.36592399683213E-16,6.12323399573677E-16,
-1.));
#1005=DIRECTION('ref_axis',(-1.,-8.36387225299515E-32,1.36592399683213E-16));
#1006=DIRECTION('',(0.,1.,6.12323399573677E-16));
#1007=DIRECTION('',(0.,1.,6.12323399573677E-16));
#1008=DIRECTION('center_axis',(-1.,-1.80255867521432E-31,2.94380171731038E-16));
#1009=DIRECTION('ref_axis',(2.94380171731038E-16,-6.12323399573677E-16,
1.));
#1010=DIRECTION('center_axis',(1.,1.80255867521432E-31,-2.94380171731038E-16));
#1011=DIRECTION('ref_axis',(-2.94380171731038E-16,6.12323399573677E-16,
-1.));
#1012=DIRECTION('center_axis',(1.,1.80255867521432E-31,-2.94380171731038E-16));
#1013=DIRECTION('ref_axis',(-2.94380171731038E-16,6.12323399573677E-16,
-1.));
#1014=DIRECTION('',(0.,1.,6.12323399573677E-16));
#1015=DIRECTION('center_axis',(-1.36592399683213E-16,6.12323399573677E-16,
-1.));
#1016=DIRECTION('ref_axis',(-1.,-8.36387225299515E-32,1.36592399683213E-16));
#1017=DIRECTION('center_axis',(-1.,0.,0.));
#1018=DIRECTION('ref_axis',(0.,0.,1.));
#1019=DIRECTION('center_axis',(-1.,0.,0.));
#1020=DIRECTION('ref_axis',(0.,0.,-1.));
#1021=DIRECTION('',(0.707106781186537,8.65956056235506E-17,0.707106781186558));
#1022=DIRECTION('center_axis',(1.,0.,0.));
#1023=DIRECTION('ref_axis',(0.,0.,-1.));
#1024=DIRECTION('center_axis',(1.,0.,0.));
#1025=DIRECTION('ref_axis',(0.,0.,-1.));
#1026=DIRECTION('center_axis',(1.,0.,0.));
#1027=DIRECTION('ref_axis',(0.,0.,-1.));
#1028=DIRECTION('center_axis',(1.,0.,0.));
#1029=DIRECTION('ref_axis',(0.,0.,-1.));
#1030=DIRECTION('',(-0.707106781186555,8.65956056235483E-17,-0.707106781186539));
#1031=DIRECTION('center_axis',(-1.,0.,0.));
#1032=DIRECTION('ref_axis',(0.,0.,-1.));
#1033=DIRECTION('center_axis',(-1.,0.,0.));
#1034=DIRECTION('ref_axis',(0.,0.,1.));
#1035=DIRECTION('',(1.,0.,0.));
#1036=DIRECTION('center_axis',(1.,0.,0.));
#1037=DIRECTION('ref_axis',(0.,0.,-1.));
#1038=DIRECTION('center_axis',(1.,0.,0.));
#1039=DIRECTION('ref_axis',(0.,0.,-1.));
#1040=DIRECTION('center_axis',(0.,1.,0.));
#1041=DIRECTION('ref_axis',(0.,0.,1.));
#1042=DIRECTION('center_axis',(0.,1.,0.));
#1043=DIRECTION('ref_axis',(0.,0.,1.));
#1044=DIRECTION('',(0.,1.,0.));
#1045=DIRECTION('center_axis',(0.,-1.,0.));
#1046=DIRECTION('ref_axis',(0.,0.,1.));
#1047=DIRECTION('center_axis',(0.,1.,0.));
#1048=DIRECTION('ref_axis',(0.,0.,1.));
#1049=DIRECTION('center_axis',(0.,1.,0.));
#1050=DIRECTION('ref_axis',(0.,0.,1.));
#1051=DIRECTION('',(0.,1.,0.));
#1052=DIRECTION('center_axis',(0.,-1.,0.));
#1053=DIRECTION('ref_axis',(0.,0.,1.));
#1054=DIRECTION('center_axis',(0.,1.,0.));
#1055=DIRECTION('ref_axis',(0.,0.,1.));
#1056=DIRECTION('',(-8.03440589904947E-17,0.754709580222771,-0.656059028990508));
#1057=DIRECTION('center_axis',(0.,1.,0.));
#1058=DIRECTION('ref_axis',(0.,0.,1.));
#1059=DIRECTION('center_axis',(0.,1.,0.));
#1060=DIRECTION('ref_axis',(0.,0.,1.));
#1061=DIRECTION('',(-8.03440589904947E-17,0.754709580222771,-0.656059028990508));
#1062=DIRECTION('center_axis',(0.,1.,0.));
#1063=DIRECTION('ref_axis',(0.,0.,1.));
#1064=DIRECTION('center_axis',(-1.,0.,0.));
#1065=DIRECTION('ref_axis',(0.,0.864443245463535,-0.502730420178121));
#1066=DIRECTION('center_axis',(-1.,0.,2.94380171731038E-16));
#1067=DIRECTION('ref_axis',(2.94380171731038E-16,0.,1.));
#1068=DIRECTION('',(-1.,0.,0.));
#1069=DIRECTION('center_axis',(1.,0.,0.));
#1070=DIRECTION('ref_axis',(0.,0.,1.));
#1071=DIRECTION('',(-1.,0.,0.));
#1072=DIRECTION('center_axis',(-1.,0.,0.));
#1073=DIRECTION('ref_axis',(0.,0.864443245463535,-0.502730420178121));
#1074=DIRECTION('center_axis',(1.,0.,-2.94380171731038E-16));
#1075=DIRECTION('ref_axis',(2.94380171731038E-16,0.,1.));
#1076=DIRECTION('',(-1.,0.,0.));
#1077=DIRECTION('center_axis',(-1.,0.,0.));
#1078=DIRECTION('ref_axis',(0.,0.,1.));
#1079=DIRECTION('',(-1.,0.,0.));
#1080=DIRECTION('center_axis',(-1.,0.,0.));
#1081=DIRECTION('ref_axis',(0.,0.864443245463535,-0.502730420178121));
#1082=DIRECTION('center_axis',(1.,0.,-2.94380171731038E-16));
#1083=DIRECTION('ref_axis',(2.94380171731038E-16,0.,1.));
#1084=DIRECTION('',(-1.,0.,0.));
#1085=DIRECTION('center_axis',(-1.,0.,2.94380171731038E-16));
#1086=DIRECTION('ref_axis',(-2.94380171731038E-16,0.,-1.));
#1087=DIRECTION('',(-1.,0.,0.));
#1088=DIRECTION('center_axis',(-1.,0.,0.));
#1089=DIRECTION('ref_axis',(0.,0.864443245463535,-0.502730420178121));
#1090=DIRECTION('center_axis',(-1.,0.,2.94380171731038E-16));
#1091=DIRECTION('ref_axis',(2.94380171731038E-16,0.,1.));
#1092=DIRECTION('',(-1.,0.,0.));
#1093=DIRECTION('center_axis',(1.,0.,-2.94380171731038E-16));
#1094=DIRECTION('ref_axis',(-2.94380171731038E-16,0.,-1.));
#1095=DIRECTION('',(-1.,0.,0.));
#1096=DIRECTION('center_axis',(0.,0.869163832024044,0.494524249255059));
#1097=DIRECTION('ref_axis',(0.,-0.494524249255059,0.869163832024044));
#1098=DIRECTION('',(2.55864598133645E-16,-0.494524249255059,0.869163832024043));
#1099=DIRECTION('',(-2.55864598133645E-16,0.494524249255059,-0.869163832024043));
#1100=DIRECTION('center_axis',(0.,-1.,0.));
#1101=DIRECTION('ref_axis',(0.,0.,-1.));
#1102=DIRECTION('',(0.,0.,1.));
#1103=DIRECTION('',(-1.,0.,1.36592399683213E-16));
#1104=DIRECTION('',(-2.94380171731038E-16,0.,-1.));
#1105=DIRECTION('',(2.94380171731038E-16,0.,1.));
#1106=DIRECTION('',(-1.,0.,1.36592399683213E-16));
#1107=DIRECTION('',(-2.94380171731038E-16,0.,-1.));
#1108=DIRECTION('',(0.,0.,1.));
#1109=DIRECTION('',(-1.,0.,0.));
#1110=DIRECTION('center_axis',(0.,0.,-1.));
#1111=DIRECTION('ref_axis',(-1.,0.,0.));
#1112=DIRECTION('',(0.,-1.,0.));
#1113=DIRECTION('',(-1.,0.,0.));
#1114=DIRECTION('',(0.,-1.,0.));
#1115=DIRECTION('center_axis',(0.,1.,1.13826999736011E-16));
#1116=DIRECTION('ref_axis',(0.,-1.13826999736011E-16,1.));
#1117=DIRECTION('',(2.94380171731038E-16,0.,1.));
#1118=DIRECTION('',(1.,0.,-1.36592399683213E-16));
#1119=DIRECTION('',(0.,1.13826999736011E-16,-1.));
#1120=DIRECTION('',(0.,1.13826999736011E-16,-1.));
#1121=DIRECTION('',(2.94380171731038E-16,0.,1.));
#1122=DIRECTION('',(1.,0.,-1.36592399683213E-16));
#1123=DIRECTION('',(-2.94380171731038E-16,0.,-1.));
#1124=DIRECTION('center_axis',(0.,0.869163832024044,0.494524249255059));
#1125=DIRECTION('ref_axis',(0.,-0.494524249255059,0.869163832024044));
#1126=DIRECTION('',(2.55864598133645E-16,-0.494524249255059,0.869163832024043));
#1127=DIRECTION('',(0.,0.494524249255059,-0.869163832024044));
#1128=DIRECTION('center_axis',(-1.,0.,0.));
#1129=DIRECTION('ref_axis',(0.,0.,1.));
#1130=DIRECTION('',(0.,1.,0.));
#1131=DIRECTION('center_axis',(-1.,0.,0.));
#1132=DIRECTION('ref_axis',(0.,0.,1.));
#1133=DIRECTION('center_axis',(1.36592399683213E-16,0.,1.));
#1134=DIRECTION('ref_axis',(1.,0.,-1.36592399683213E-16));
#1135=DIRECTION('',(0.,1.,0.));
#1136=DIRECTION('',(0.,1.,0.));
#1137=DIRECTION('center_axis',(1.,0.,-2.94380171731038E-16));
#1138=DIRECTION('ref_axis',(-2.94380171731038E-16,0.,-1.));
#1139=DIRECTION('center_axis',(-1.,0.,2.94380171731038E-16));
#1140=DIRECTION('ref_axis',(2.94380171731038E-16,0.,1.));
#1141=DIRECTION('center_axis',(-1.,0.,2.94380171731038E-16));
#1142=DIRECTION('ref_axis',(2.94380171731038E-16,0.,1.));
#1143=DIRECTION('',(0.,1.,0.));
#1144=DIRECTION('center_axis',(1.36592399683213E-16,0.,1.));
#1145=DIRECTION('ref_axis',(1.,0.,-1.36592399683213E-16));
#1146=CARTESIAN_POINT('',(0.,0.,0.));
#1147=CARTESIAN_POINT('Origin',(0.312,-0.0579999999999999,-0.234));
#1148=CARTESIAN_POINT('',(0.312,-0.0579999999999999,-0.191));
#1149=CARTESIAN_POINT('Origin',(0.312,-0.0579999999999999,-0.234));
#1150=CARTESIAN_POINT('',(0.312,-0.0502555261083149,-0.191));
#1151=CARTESIAN_POINT('',(0.312,-0.0579999999999999,-0.191));
#1152=CARTESIAN_POINT('Origin',(0.312,-0.0502555261083149,-0.234));
#1153=CARTESIAN_POINT('Origin',(-0.313,-0.0579999999999999,-0.234));
#1154=CARTESIAN_POINT('',(-0.313,-0.0579999999999999,-0.191));
#1155=CARTESIAN_POINT('Origin',(-0.313,-0.0579999999999999,-0.234));
#1156=CARTESIAN_POINT('',(-0.313,-0.0502555261083149,-0.191));
#1157=CARTESIAN_POINT('',(-0.313,-0.0579999999999999,-0.191));
#1158=CARTESIAN_POINT('Origin',(-0.313,-0.0502555261083149,-0.234));
#1159=CARTESIAN_POINT('Origin',(-0.313,-0.0329999999999998,-0.234));
#1160=CARTESIAN_POINT('',(-0.313,-0.0329999999999999,-0.176));
#1161=CARTESIAN_POINT('',(-0.313,-0.0329999999999999,-0.176));
#1162=CARTESIAN_POINT('Origin',(-0.313,-0.0329999999999998,-0.234));
#1163=CARTESIAN_POINT('Origin',(0.312,-0.0329999999999998,-0.234));
#1164=CARTESIAN_POINT('',(0.312,-0.0329999999999999,-0.176));
#1165=CARTESIAN_POINT('',(0.312,-0.0329999999999999,-0.176));
#1166=CARTESIAN_POINT('Origin',(0.312,-0.0329999999999998,-0.234));
#1167=CARTESIAN_POINT('Origin',(-0.5,3.1586992426743E-15,1.88668252062438E-15));
#1168=CARTESIAN_POINT('',(0.25,-0.0286824064567934,-0.0504115022573945));
#1169=CARTESIAN_POINT('',(0.25,-0.058,1.85116776344911E-15));
#1170=CARTESIAN_POINT('Origin',(0.25,3.1586992426743E-15,1.88668252062438E-15));
#1171=CARTESIAN_POINT('',(0.5,-0.058,7.30565026772833E-18));
#1172=CARTESIAN_POINT('',(-0.5,-0.058,7.30565026772833E-18));
#1173=CARTESIAN_POINT('',(0.5,-0.0286824064567934,-0.0504115022573945));
#1174=CARTESIAN_POINT('Origin',(0.5,3.1586992426743E-15,1.88668252062438E-15));
#1175=CARTESIAN_POINT('',(-0.5,-0.0286824064567934,-0.0504115022573945));
#1176=CARTESIAN_POINT('Origin',(-0.5,0.,0.));
#1177=CARTESIAN_POINT('',(0.25,-0.033,-4.77612251667467E-18));
#1178=CARTESIAN_POINT('',(0.25,-0.0163193002254169,-0.0286824064567934));
#1179=CARTESIAN_POINT('Origin',(0.25,0.,0.));
#1180=CARTESIAN_POINT('',(0.5,-0.0163193002254169,-0.0286824064567934));
#1181=CARTESIAN_POINT('',(-0.5,-0.0163193002254169,-0.0286824064567934));
#1182=CARTESIAN_POINT('',(0.5,-0.033,-4.77612251667467E-18));
#1183=CARTESIAN_POINT('Origin',(0.5,0.,0.));
#1184=CARTESIAN_POINT('',(-0.5,-0.033,-4.77612251667467E-18));
#1185=CARTESIAN_POINT('Origin',(-0.5,0.,0.));
#1186=CARTESIAN_POINT('',(-0.25,-0.033,-2.02066721859313E-17));
#1187=CARTESIAN_POINT('',(-0.25,-0.0163193002254169,-0.0286824064567934));
#1188=CARTESIAN_POINT('Origin',(-0.25,0.,0.));
#1189=CARTESIAN_POINT('',(-6.82961998416066E-17,-0.0163193002254169,-0.0286824064567934));
#1190=CARTESIAN_POINT('',(-0.5,-0.0163193002254169,-0.0286824064567934));
#1191=CARTESIAN_POINT('',(-6.82961998416066E-17,-0.033,-4.77612251667467E-18));
#1192=CARTESIAN_POINT('Origin',(-6.82961998416066E-17,0.,0.));
#1193=CARTESIAN_POINT('',(-0.5,-0.033,-4.77612251667467E-18));
#1194=CARTESIAN_POINT('Origin',(-0.5,3.1586992426743E-15,1.88668252062438E-15));
#1195=CARTESIAN_POINT('',(-0.25,-0.0286824064567934,-0.0504115022573945));
#1196=CARTESIAN_POINT('',(-0.25,-0.058,7.17036772573084E-18));
#1197=CARTESIAN_POINT('Origin',(-0.25,3.1586992426743E-15,1.88668252062438E-15));
#1198=CARTESIAN_POINT('',(-8.53702498020077E-17,-0.058,1.85116776344911E-15));
#1199=CARTESIAN_POINT('',(-0.5,-0.058,7.30565026772833E-18));
#1200=CARTESIAN_POINT('',(-7.46928147949477E-17,-0.0286824064567934,-0.0504115022573945));
#1201=CARTESIAN_POINT('Origin',(-6.82961998416066E-17,3.1586992426743E-15,
1.88668252062438E-15));
#1202=CARTESIAN_POINT('',(-0.5,-0.0286824064567934,-0.0504115022573945));
#1203=CARTESIAN_POINT('Origin',(-0.5,-0.0163193002254169,-0.0286824064567934));
#1204=CARTESIAN_POINT('',(-0.25,-0.016319300225417,-0.0286824064567935));
#1205=CARTESIAN_POINT('',(-6.82961998416066E-17,-0.016319300225417,-0.0286824064567936));
#1206=CARTESIAN_POINT('Origin',(-0.5,-0.0329999999999998,-0.375));
#1207=CARTESIAN_POINT('',(-0.5,-0.033,-0.058000000000005));
#1208=CARTESIAN_POINT('',(-0.5,-0.0329999999999998,-0.375));
#1209=CARTESIAN_POINT('',(-0.5,-0.0329999999999998,-0.375));
#1210=CARTESIAN_POINT('',(-0.25,-0.033,-0.0580000000000049));
#1211=CARTESIAN_POINT('',(-0.5,-0.033,-0.0580000000000048));
#1212=CARTESIAN_POINT('',(-0.25,-0.0329999999999998,-0.375));
#1213=CARTESIAN_POINT('',(-1.0244429976241E-16,-0.033,-0.0580000000000048));
#1214=CARTESIAN_POINT('',(-2.0488859952482E-16,-0.0329999999999998,-0.375));
#1215=CARTESIAN_POINT('',(0.25,-0.033,-0.0580000000000049));
#1216=CARTESIAN_POINT('',(-0.5,-0.033,-0.0580000000000048));
#1217=CARTESIAN_POINT('',(0.25,-0.0329999999999998,-0.375));
#1218=CARTESIAN_POINT('',(0.5,-0.0329999999999998,-0.375));
#1219=CARTESIAN_POINT('',(0.5,-0.0329999999999998,-0.375));
#1220=CARTESIAN_POINT('',(-0.5,-0.0329999999999998,-0.375));
#1221=CARTESIAN_POINT('Origin',(-0.5,-0.0579999999999998,-0.375));
#1222=CARTESIAN_POINT('',(0.5,-0.0579999999999998,-0.375));
#1223=CARTESIAN_POINT('',(0.5,-0.0579999999999998,-0.375));
#1224=CARTESIAN_POINT('',(-0.5,-0.0579999999999998,-0.375));
#1225=CARTESIAN_POINT('',(-0.5,-0.0579999999999998,-0.375));
#1226=CARTESIAN_POINT('',(-0.5,-0.0579999999999998,-0.375));
#1227=CARTESIAN_POINT('Origin',(-0.5,-0.058,-2.00842075060166E-17));
#1228=CARTESIAN_POINT('',(-0.25,-0.058,-0.0580000000000049));
#1229=CARTESIAN_POINT('',(-0.25,-0.058,-0.0580000000000049));
#1230=CARTESIAN_POINT('',(-0.5,-0.058,-0.0580000000000049));
#1231=CARTESIAN_POINT('',(-0.5,-0.058,-0.0580000000000049));
#1232=CARTESIAN_POINT('',(-0.5,-0.058,-2.00842075060166E-17));
#1233=CARTESIAN_POINT('',(0.5,-0.058,-2.00842075060166E-17));
#1234=CARTESIAN_POINT('',(0.25,-0.058,-0.0580000000000049));
#1235=CARTESIAN_POINT('',(0.25,-0.058,-0.0580000000000049));
#1236=CARTESIAN_POINT('',(-1.0244429976241E-16,-0.058,-0.0580000000000049));
#1237=CARTESIAN_POINT('',(-1.0244429976241E-16,-0.058,-0.0580000000000049));
#1238=CARTESIAN_POINT('',(-6.82961998416066E-17,-0.0580000000000001,0.0580000000000049));
#1239=CARTESIAN_POINT('Origin',(-0.5,-0.0163193002254169,-0.0286824064567934));
#1240=CARTESIAN_POINT('',(0.25,-0.016319300225417,-0.0286824064567936));
#1241=CARTESIAN_POINT('',(0.5,-0.0163193002254169,-0.0286824064567934));
#1242=CARTESIAN_POINT('Origin',(-0.5,0.,0.));
#1243=CARTESIAN_POINT('',(-0.5,-0.058,-0.0580000000000049));
#1244=CARTESIAN_POINT('Origin',(0.5,0.,0.));
#1245=CARTESIAN_POINT('Origin',(-1.0244429976241E-16,-0.058,-0.0580000000000049));
#1246=CARTESIAN_POINT('',(-1.0244429976241E-16,-0.058,-0.0580000000000049));
#1247=CARTESIAN_POINT('',(0.25,-0.058,-0.0580000000000049));
#1248=CARTESIAN_POINT('Origin',(-6.82961998416066E-17,-0.0580000000000001,
0.0580000000000049));
#1249=CARTESIAN_POINT('Origin',(0.25,-0.058,-0.0580000000000049));
#1250=CARTESIAN_POINT('Origin',(-0.25,-0.058,-0.0580000000000049));
#1251=CARTESIAN_POINT('',(-0.25,-0.058,-0.0580000000000049));
#1252=CARTESIAN_POINT('Origin',(-0.5,-0.058,-0.0580000000000049));
#1253=CARTESIAN_POINT('Origin',(0.5,0.,0.));
#1254=CARTESIAN_POINT('',(0.49868,-4.04133443718627E-18,-0.033));
#1255=CARTESIAN_POINT('Origin',(0.49868,0.,0.));
#1256=CARTESIAN_POINT('',(0.5,-3.87968105969881E-18,-0.03168));
#1257=CARTESIAN_POINT('',(0.5,-3.87968105969881E-18,-0.03168));
#1258=CARTESIAN_POINT('Origin',(0.5,0.,0.));
#1259=CARTESIAN_POINT('Origin',(-0.49868,0.,0.));
#1260=CARTESIAN_POINT('',(-0.49868,4.04133443718627E-18,-0.033));
#1261=CARTESIAN_POINT('',(-0.49868,-4.04133443718627E-18,0.033));
#1262=CARTESIAN_POINT('Origin',(-0.49868,0.,0.));
#1263=CARTESIAN_POINT('Origin',(-0.49868,0.,0.));
#1264=CARTESIAN_POINT('',(-0.5,-3.87968105969879E-18,0.0316799999999998));
#1265=CARTESIAN_POINT('',(-0.49868,-4.04133443718627E-18,0.033));
#1266=CARTESIAN_POINT('Origin',(-0.5,0.,0.));
#1267=CARTESIAN_POINT('Origin',(0.5,0.,0.));
#1268=CARTESIAN_POINT('',(0.5,-4.04133443718627E-18,-0.033));
#1269=CARTESIAN_POINT('Origin',(0.5,0.,0.));
#1270=CARTESIAN_POINT('Origin',(-0.5,0.,0.));
#1271=CARTESIAN_POINT('Origin',(-0.312,-0.058,0.234));
#1272=CARTESIAN_POINT('',(-0.312,-0.058,0.191));
#1273=CARTESIAN_POINT('Origin',(-0.312,-0.058,0.234));
#1274=CARTESIAN_POINT('',(-0.312,-0.050255526108315,0.191));
#1275=CARTESIAN_POINT('',(-0.312,-0.058,0.191));
#1276=CARTESIAN_POINT('Origin',(-0.312,-0.050255526108315,0.234));
#1277=CARTESIAN_POINT('Origin',(0.313,-0.058,0.234));
#1278=CARTESIAN_POINT('',(0.313,-0.058,0.191));
#1279=CARTESIAN_POINT('Origin',(0.313,-0.058,0.234));
#1280=CARTESIAN_POINT('',(0.313,-0.0502555261083151,0.191));
#1281=CARTESIAN_POINT('',(0.313,-0.058,0.191));
#1282=CARTESIAN_POINT('Origin',(0.313,-0.0502555261083151,0.234));
#1283=CARTESIAN_POINT('Origin',(0.313,-0.033,0.234));
#1284=CARTESIAN_POINT('',(0.313,-0.033,0.176));
#1285=CARTESIAN_POINT('',(0.313,-0.033,0.176));
#1286=CARTESIAN_POINT('Origin',(0.313,-0.033,0.234));
#1287=CARTESIAN_POINT('Origin',(-0.312,-0.033,0.234));
#1288=CARTESIAN_POINT('',(-0.312,-0.033,0.176));
#1289=CARTESIAN_POINT('',(-0.312,-0.033,0.176));
#1290=CARTESIAN_POINT('Origin',(-0.312,-0.033,0.234));
#1291=CARTESIAN_POINT('Origin',(0.5,3.1586992426743E-15,-1.88668252062438E-15));
#1292=CARTESIAN_POINT('',(-0.25,-0.0286824064567934,0.0504115022573945));
#1293=CARTESIAN_POINT('',(-0.25,-0.058,-1.88668252062438E-15));
#1294=CARTESIAN_POINT('Origin',(-0.25,3.1586992426743E-15,-1.88668252062438E-15));
#1295=CARTESIAN_POINT('',(-0.5,-0.058,-4.28204074430016E-17));
#1296=CARTESIAN_POINT('',(0.5,-0.058,-4.28204074430016E-17));
#1297=CARTESIAN_POINT('',(-0.5,-0.0286824064567934,0.0504115022573945));
#1298=CARTESIAN_POINT('Origin',(-0.5,3.1586992426743E-15,-1.88668252062438E-15));
#1299=CARTESIAN_POINT('',(0.5,-0.0286824064567934,0.0504115022573945));
#1300=CARTESIAN_POINT('Origin',(0.5,0.,0.));
#1301=CARTESIAN_POINT('',(-0.25,-0.033,-1.54305496692566E-17));
#1302=CARTESIAN_POINT('',(-0.25,-0.016319300225417,0.0286824064567934));
#1303=CARTESIAN_POINT('Origin',(-0.25,0.,0.));
#1304=CARTESIAN_POINT('',(-0.5,-0.016319300225417,0.0286824064567934));
#1305=CARTESIAN_POINT('',(0.5,-0.016319300225417,0.0286824064567934));
#1306=CARTESIAN_POINT('',(-0.5,-0.033,-1.54305496692566E-17));
#1307=CARTESIAN_POINT('Origin',(-0.5,0.,0.));
#1308=CARTESIAN_POINT('',(0.5,-0.033,-1.54305496692566E-17));
#1309=CARTESIAN_POINT('Origin',(0.5,0.,0.));
#1310=CARTESIAN_POINT('',(0.25,-0.033,0.));
#1311=CARTESIAN_POINT('',(0.25,-0.016319300225417,0.0286824064567934));
#1312=CARTESIAN_POINT('Origin',(0.25,0.,0.));
#1313=CARTESIAN_POINT('',(6.82961998416066E-17,-0.016319300225417,0.0286824064567934));
#1314=CARTESIAN_POINT('',(0.5,-0.016319300225417,0.0286824064567934));
#1315=CARTESIAN_POINT('',(6.82961998416066E-17,-0.033,-1.54305496692567E-17));
#1316=CARTESIAN_POINT('Origin',(6.82961998416066E-17,0.,0.));
#1317=CARTESIAN_POINT('',(0.5,-0.033,-1.54305496692566E-17));
#1318=CARTESIAN_POINT('Origin',(0.5,3.1586992426743E-15,-1.88668252062438E-15));
#1319=CARTESIAN_POINT('',(0.25,-0.0286824064567934,0.0504115022573945));
#1320=CARTESIAN_POINT('',(0.25,-0.058,-4.26851249010041E-17));
#1321=CARTESIAN_POINT('Origin',(0.25,3.1586992426743E-15,-1.88668252062438E-15));
#1322=CARTESIAN_POINT('',(8.53702498020077E-17,-0.058,-1.88668252062438E-15));
#1323=CARTESIAN_POINT('',(0.5,-0.058,-4.28204074430016E-17));
#1324=CARTESIAN_POINT('',(7.46928147949477E-17,-0.0286824064567934,0.0504115022573945));
#1325=CARTESIAN_POINT('Origin',(6.82961998416066E-17,3.1586992426743E-15,
-1.88668252062438E-15));
#1326=CARTESIAN_POINT('',(0.5,-0.0286824064567934,0.0504115022573945));
#1327=CARTESIAN_POINT('Origin',(0.5,-0.016319300225417,0.0286824064567934));
#1328=CARTESIAN_POINT('',(0.25,-0.016319300225417,0.0286824064567935));
#1329=CARTESIAN_POINT('',(6.82961998416066E-17,-0.016319300225417,0.0286824064567935));
#1330=CARTESIAN_POINT('Origin',(0.5,-0.033,0.375));
#1331=CARTESIAN_POINT('',(0.5,-0.033,0.058000000000005));
#1332=CARTESIAN_POINT('',(0.5,-0.033,0.375));
#1333=CARTESIAN_POINT('',(0.5,-0.033,0.375));
#1334=CARTESIAN_POINT('',(0.25,-0.033,0.0580000000000049));
#1335=CARTESIAN_POINT('',(0.5,-0.033,0.0580000000000048));
#1336=CARTESIAN_POINT('',(0.25,-0.033,0.375));
#1337=CARTESIAN_POINT('',(1.0244429976241E-16,-0.033,0.0580000000000048));
#1338=CARTESIAN_POINT('',(2.0488859952482E-16,-0.033,0.375));
#1339=CARTESIAN_POINT('',(-0.25,-0.033,0.0580000000000049));
#1340=CARTESIAN_POINT('',(0.5,-0.033,0.0580000000000047));
#1341=CARTESIAN_POINT('',(-0.25,-0.033,0.375));
#1342=CARTESIAN_POINT('',(-0.5,-0.033,0.375));
#1343=CARTESIAN_POINT('',(-0.5,-0.033,0.375));
#1344=CARTESIAN_POINT('',(0.5,-0.033,0.375));
#1345=CARTESIAN_POINT('Origin',(0.5,-0.058,0.375));
#1346=CARTESIAN_POINT('',(-0.5,-0.058,0.375));
#1347=CARTESIAN_POINT('',(-0.5,-0.058,0.375));
#1348=CARTESIAN_POINT('',(0.5,-0.058,0.375));
#1349=CARTESIAN_POINT('',(0.5,-0.058,0.375));
#1350=CARTESIAN_POINT('',(0.5,-0.058,0.375));
#1351=CARTESIAN_POINT('Origin',(0.5,-0.058,-1.54305496692566E-17));
#1352=CARTESIAN_POINT('',(0.25,-0.058,0.0580000000000049));
#1353=CARTESIAN_POINT('',(0.25,-0.058,0.0580000000000049));
#1354=CARTESIAN_POINT('',(0.5,-0.058,0.0580000000000048));
#1355=CARTESIAN_POINT('',(0.5,-0.058,0.0580000000000048));
#1356=CARTESIAN_POINT('',(0.5,-0.058,-1.54305496692566E-17));
#1357=CARTESIAN_POINT('',(-0.5,-0.058,-1.54305496692566E-17));
#1358=CARTESIAN_POINT('',(-0.25,-0.058,0.0580000000000049));
#1359=CARTESIAN_POINT('',(-0.25,-0.058,0.0580000000000049));
#1360=CARTESIAN_POINT('',(1.0244429976241E-16,-0.058,0.0580000000000048));
#1361=CARTESIAN_POINT('',(1.0244429976241E-16,-0.058,0.0580000000000048));
#1362=CARTESIAN_POINT('',(6.82961998416066E-17,-0.058,-0.058000000000005));
#1363=CARTESIAN_POINT('Origin',(0.5,-0.016319300225417,0.0286824064567934));
#1364=CARTESIAN_POINT('',(-0.25,-0.016319300225417,0.0286824064567936));
#1365=CARTESIAN_POINT('',(-0.5,-0.016319300225417,0.0286824064567934));
#1366=CARTESIAN_POINT('Origin',(0.5,0.,0.));
#1367=CARTESIAN_POINT('',(0.5,-0.058,0.0580000000000048));
#1368=CARTESIAN_POINT('Origin',(-0.5,0.,0.));
#1369=CARTESIAN_POINT('Origin',(1.0244429976241E-16,-0.058,0.0580000000000048));
#1370=CARTESIAN_POINT('',(1.0244429976241E-16,-0.058,0.0580000000000048));
#1371=CARTESIAN_POINT('',(-0.25,-0.058,0.0580000000000049));
#1372=CARTESIAN_POINT('Origin',(6.82961998416066E-17,-0.058,-0.058000000000005));
#1373=CARTESIAN_POINT('Origin',(-0.25,-0.058,0.0580000000000049));
#1374=CARTESIAN_POINT('Origin',(0.25,-0.058,0.0580000000000049));
#1375=CARTESIAN_POINT('',(0.25,-0.058,0.0580000000000049));
#1376=CARTESIAN_POINT('Origin',(0.5,-0.058,0.0580000000000048));
#1377=UNCERTAINTY_MEASURE_WITH_UNIT(LENGTH_MEASURE(0.000393700787401575),
#1382,'DISTANCE_ACCURACY_VALUE',
'Maximum model space distance between geometric entities at asserted c
onnectivities');
#1378=UNCERTAINTY_MEASURE_WITH_UNIT(LENGTH_MEASURE(0.000393700787401575),
#1382,'DISTANCE_ACCURACY_VALUE',
'Maximum model space distance between geometric entities at asserted c
onnectivities');
#1379=(
GEOMETRIC_REPRESENTATION_CONTEXT(3)
GLOBAL_UNCERTAINTY_ASSIGNED_CONTEXT((#1377))
GLOBAL_UNIT_ASSIGNED_CONTEXT((#1382,#1386,#1387))
REPRESENTATION_CONTEXT('','3D')
);
#1380=(
GEOMETRIC_REPRESENTATION_CONTEXT(3)
GLOBAL_UNCERTAINTY_ASSIGNED_CONTEXT((#1378))
GLOBAL_UNIT_ASSIGNED_CONTEXT((#1382,#1386,#1387))
REPRESENTATION_CONTEXT('','3D')
);
#1381=DIMENSIONAL_EXPONENTS(1.,0.,0.,0.,0.,0.,0.);
#1382=(
CONVERSION_BASED_UNIT('inch',#1385)
LENGTH_UNIT()
NAMED_UNIT(#1381)
);
#1383=(
LENGTH_UNIT()
NAMED_UNIT(*)
SI_UNIT(.MILLI.,.METRE.)
);
#1384=(
LENGTH_UNIT()
NAMED_UNIT(*)
SI_UNIT($,.METRE.)
);
#1385=LENGTH_MEASURE_WITH_UNIT(LENGTH_MEASURE(25.4),#1383);
#1386=(
NAMED_UNIT(*)
PLANE_ANGLE_UNIT()
SI_UNIT($,.RADIAN.)
);
#1387=(
NAMED_UNIT(*)
SI_UNIT($,.STERADIAN.)
SOLID_ANGLE_UNIT()
);
#1388=SHAPE_DEFINITION_REPRESENTATION(#1389,#1390);
#1389=PRODUCT_DEFINITION_SHAPE('',$,#1392);
#1390=SHAPE_REPRESENTATION('',(#830),#1379);
#1391=PRODUCT_DEFINITION_CONTEXT('part definition',#1396,'design');
#1392=PRODUCT_DEFINITION('1603A3_Surface-Mount Hinge with Holes',
'1603A3_Surface-Mount Hinge with Holes',#1393,#1391);
#1393=PRODUCT_DEFINITION_FORMATION('',$,#1398);
#1394=PRODUCT_RELATED_PRODUCT_CATEGORY(
'1603A3_Surface-Mount Hinge with Holes',
'1603A3_Surface-Mount Hinge with Holes',(#1398));
#1395=APPLICATION_PROTOCOL_DEFINITION('international standard',
'automotive_design',2009,#1396);
#1396=APPLICATION_CONTEXT(
'Core Data for Automotive Mechanical Design Process');
#1397=PRODUCT_CONTEXT('part definition',#1396,'mechanical');
#1398=PRODUCT('1603A3_Surface-Mount Hinge with Holes',
'1603A3_Surface-Mount Hinge with Holes',$,(#1397));
#1399=PRESENTATION_STYLE_ASSIGNMENT((#1400));
#1400=SURFACE_STYLE_USAGE(.BOTH.,#1401);
#1401=SURFACE_SIDE_STYLE('',(#1402));
#1402=SURFACE_STYLE_FILL_AREA(#1403);
#1403=FILL_AREA_STYLE('Steel - Satin',(#1404));
#1404=FILL_AREA_STYLE_COLOUR('Steel - Satin',#1405);
#1405=COLOUR_RGB('Steel - Satin',0.627450980392157,0.627450980392157,0.627450980392157);
ENDSEC;
END-ISO-10303-21;
