ISO-10303-21;
HEADER;
/* Generated by software containing ST-Developer
 * from STEP Tools, Inc. (www.steptools.com) 
 */

FILE_DESCRIPTION(
/* description */ (''),
/* implementation_level */ '2;1');

FILE_NAME(
/* name */ '1603A2.step',
/* time_stamp */ '2026-03-16T15:06:49-04:00',
/* author */ (''),
/* organization */ (''),
/* preprocessor_version */ 'ST-DEVELOPER v20.1',
/* originating_system */ 'Autodesk Translation Framework v14.24.0.0',
/* authorisation */ '');

FILE_SCHEMA (('AUTOMOTIVE_DESIGN { 1 0 10303 214 3 1 1 }'));
ENDSEC;

DATA;
#10=MECHANICAL_DESIGN_GEOMETRIC_PRESENTATION_REPRESENTATION('',(#21,#22,
#23),#1178);
#11=SHAPE_REPRESENTATION_RELATIONSHIP('SRR','None',#1188,#12);
#12=ADVANCED_BREP_SHAPE_REPRESENTATION('',(#24,#25,#26),#1177);
#13=FACE_BOUND('',#114,.T.);
#14=FACE_BOUND('',#115,.T.);
#15=FACE_BOUND('',#118,.T.);
#16=FACE_BOUND('',#119,.T.);
#17=FACE_BOUND('',#133,.T.);
#18=FACE_BOUND('',#134,.T.);
#19=FACE_BOUND('',#137,.T.);
#20=FACE_BOUND('',#138,.T.);
#21=STYLED_ITEM('',(#1197),#24);
#22=STYLED_ITEM('',(#1197),#25);
#23=STYLED_ITEM('',(#1197),#26);
#24=MANIFOLD_SOLID_BREP('Body1',#693);
#25=MANIFOLD_SOLID_BREP('Body2',#694);
#26=MANIFOLD_SOLID_BREP('Body3',#695);
#27=PLANE('',#717);
#28=PLANE('',#718);
#29=PLANE('',#741);
#30=PLANE('',#742);
#31=PLANE('',#743);
#32=PLANE('',#744);
#33=PLANE('',#745);
#34=PLANE('',#746);
#35=PLANE('',#747);
#36=PLANE('',#748);
#37=PLANE('',#749);
#38=PLANE('',#750);
#39=PLANE('',#767);
#40=PLANE('',#768);
#41=PLANE('',#769);
#42=PLANE('',#770);
#43=PLANE('',#771);
#44=PLANE('',#772);
#45=PLANE('',#773);
#46=PLANE('',#774);
#47=PLANE('',#775);
#48=PLANE('',#776);
#49=CYLINDRICAL_SURFACE('',#716,0.033);
#50=CYLINDRICAL_SURFACE('',#719,0.043);
#51=CYLINDRICAL_SURFACE('',#722,0.043);
#52=CYLINDRICAL_SURFACE('',#729,0.0580000000000031);
#53=CYLINDRICAL_SURFACE('',#732,0.033);
#54=CYLINDRICAL_SURFACE('',#735,0.0580000000000031);
#55=CYLINDRICAL_SURFACE('',#738,0.033);
#56=CYLINDRICAL_SURFACE('',#751,0.043);
#57=CYLINDRICAL_SURFACE('',#754,0.043);
#58=CYLINDRICAL_SURFACE('',#761,0.033);
#59=CYLINDRICAL_SURFACE('',#764,0.0580000000000031);
#60=FACE_OUTER_BOUND('',#99,.T.);
#61=FACE_OUTER_BOUND('',#100,.T.);
#62=FACE_OUTER_BOUND('',#101,.T.);
#63=FACE_OUTER_BOUND('',#102,.T.);
#64=FACE_OUTER_BOUND('',#103,.T.);
#65=FACE_OUTER_BOUND('',#104,.T.);
#66=FACE_OUTER_BOUND('',#105,.T.);
#67=FACE_OUTER_BOUND('',#106,.T.);
#68=FACE_OUTER_BOUND('',#107,.T.);
#69=FACE_OUTER_BOUND('',#108,.T.);
#70=FACE_OUTER_BOUND('',#109,.T.);
#71=FACE_OUTER_BOUND('',#110,.T.);
#72=FACE_OUTER_BOUND('',#111,.T.);
#73=FACE_OUTER_BOUND('',#112,.T.);
#74=FACE_OUTER_BOUND('',#113,.T.);
#75=FACE_OUTER_BOUND('',#116,.T.);
#76=FACE_OUTER_BOUND('',#117,.T.);
#77=FACE_OUTER_BOUND('',#120,.T.);
#78=FACE_OUTER_BOUND('',#121,.T.);
#79=FACE_OUTER_BOUND('',#122,.T.);
#80=FACE_OUTER_BOUND('',#123,.T.);
#81=FACE_OUTER_BOUND('',#124,.T.);
#82=FACE_OUTER_BOUND('',#125,.T.);
#83=FACE_OUTER_BOUND('',#126,.T.);
#84=FACE_OUTER_BOUND('',#127,.T.);
#85=FACE_OUTER_BOUND('',#128,.T.);
#86=FACE_OUTER_BOUND('',#129,.T.);
#87=FACE_OUTER_BOUND('',#130,.T.);
#88=FACE_OUTER_BOUND('',#131,.T.);
#89=FACE_OUTER_BOUND('',#132,.T.);
#90=FACE_OUTER_BOUND('',#135,.T.);
#91=FACE_OUTER_BOUND('',#136,.T.);
#92=FACE_OUTER_BOUND('',#139,.T.);
#93=FACE_OUTER_BOUND('',#140,.T.);
#94=FACE_OUTER_BOUND('',#141,.T.);
#95=FACE_OUTER_BOUND('',#142,.T.);
#96=FACE_OUTER_BOUND('',#143,.T.);
#97=FACE_OUTER_BOUND('',#144,.T.);
#98=FACE_OUTER_BOUND('',#145,.T.);
#99=EDGE_LOOP('',(#460,#461,#462,#463));
#100=EDGE_LOOP('',(#464,#465,#466,#467,#468));
#101=EDGE_LOOP('',(#469,#470,#471,#472,#473));
#102=EDGE_LOOP('',(#474));
#103=EDGE_LOOP('',(#475));
#104=EDGE_LOOP('',(#476,#477,#478,#479));
#105=EDGE_LOOP('',(#480,#481,#482,#483));
#106=EDGE_LOOP('',(#484,#485,#486,#487));
#107=EDGE_LOOP('',(#488,#489,#490,#491));
#108=EDGE_LOOP('',(#492,#493,#494,#495));
#109=EDGE_LOOP('',(#496,#497,#498,#499));
#110=EDGE_LOOP('',(#500,#501,#502,#503));
#111=EDGE_LOOP('',(#504,#505,#506,#507));
#112=EDGE_LOOP('',(#508,#509,#510,#511));
#113=EDGE_LOOP('',(#512,#513,#514,#515,#516,#517,#518,#519));
#114=EDGE_LOOP('',(#520));
#115=EDGE_LOOP('',(#521));
#116=EDGE_LOOP('',(#522,#523,#524,#525));
#117=EDGE_LOOP('',(#526,#527,#528,#529,#530,#531,#532,#533));
#118=EDGE_LOOP('',(#534));
#119=EDGE_LOOP('',(#535));
#120=EDGE_LOOP('',(#536,#537,#538,#539));
#121=EDGE_LOOP('',(#540,#541,#542,#543,#544,#545));
#122=EDGE_LOOP('',(#546,#547,#548,#549,#550,#551));
#123=EDGE_LOOP('',(#552,#553,#554,#555));
#124=EDGE_LOOP('',(#556,#557,#558,#559,#560,#561));
#125=EDGE_LOOP('',(#562,#563,#564,#565,#566,#567));
#126=EDGE_LOOP('',(#568,#569,#570,#571));
#127=EDGE_LOOP('',(#572,#573,#574,#575));
#128=EDGE_LOOP('',(#576,#577,#578,#579));
#129=EDGE_LOOP('',(#580,#581,#582,#583));
#130=EDGE_LOOP('',(#584,#585,#586,#587));
#131=EDGE_LOOP('',(#588,#589,#590,#591));
#132=EDGE_LOOP('',(#592,#593,#594,#595,#596,#597,#598,#599));
#133=EDGE_LOOP('',(#600));
#134=EDGE_LOOP('',(#601));
#135=EDGE_LOOP('',(#602,#603,#604,#605));
#136=EDGE_LOOP('',(#606,#607,#608,#609,#610,#611,#612,#613));
#137=EDGE_LOOP('',(#614));
#138=EDGE_LOOP('',(#615));
#139=EDGE_LOOP('',(#616,#617,#618,#619));
#140=EDGE_LOOP('',(#620,#621,#622,#623));
#141=EDGE_LOOP('',(#624,#625,#626,#627));
#142=EDGE_LOOP('',(#628,#629,#630,#631,#632,#633));
#143=EDGE_LOOP('',(#634,#635,#636,#637));
#144=EDGE_LOOP('',(#638,#639,#640,#641,#642,#643));
#145=EDGE_LOOP('',(#644,#645,#646,#647));
#146=LINE('',#985,#211);
#147=LINE('',#993,#212);
#148=LINE('',#996,#213);
#149=LINE('',#1003,#214);
#150=LINE('',#1009,#215);
#151=LINE('',#1013,#216);
#152=LINE('',#1017,#217);
#153=LINE('',#1024,#218);
#154=LINE('',#1027,#219);
#155=LINE('',#1033,#220);
#156=LINE('',#1036,#221);
#157=LINE('',#1042,#222);
#158=LINE('',#1045,#223);
#159=LINE('',#1051,#224);
#160=LINE('',#1054,#225);
#161=LINE('',#1056,#226);
#162=LINE('',#1057,#227);
#163=LINE('',#1060,#228);
#164=LINE('',#1062,#229);
#165=LINE('',#1063,#230);
#166=LINE('',#1065,#231);
#167=LINE('',#1067,#232);
#168=LINE('',#1068,#233);
#169=LINE('',#1071,#234);
#170=LINE('',#1073,#235);
#171=LINE('',#1074,#236);
#172=LINE('',#1078,#237);
#173=LINE('',#1079,#238);
#174=LINE('',#1080,#239);
#175=LINE('',#1081,#240);
#176=LINE('',#1082,#241);
#177=LINE('',#1084,#242);
#178=LINE('',#1085,#243);
#179=LINE('',#1089,#244);
#180=LINE('',#1090,#245);
#181=LINE('',#1097,#246);
#182=LINE('',#1103,#247);
#183=LINE('',#1107,#248);
#184=LINE('',#1111,#249);
#185=LINE('',#1118,#250);
#186=LINE('',#1121,#251);
#187=LINE('',#1127,#252);
#188=LINE('',#1130,#253);
#189=LINE('',#1134,#254);
#190=LINE('',#1135,#255);
#191=LINE('',#1137,#256);
#192=LINE('',#1139,#257);
#193=LINE('',#1141,#258);
#194=LINE('',#1143,#259);
#195=LINE('',#1144,#260);
#196=LINE('',#1147,#261);
#197=LINE('',#1149,#262);
#198=LINE('',#1150,#263);
#199=LINE('',#1153,#264);
#200=LINE('',#1155,#265);
#201=LINE('',#1156,#266);
#202=LINE('',#1158,#267);
#203=LINE('',#1160,#268);
#204=LINE('',#1161,#269);
#205=LINE('',#1163,#270);
#206=LINE('',#1164,#271);
#207=LINE('',#1166,#272);
#208=LINE('',#1168,#273);
#209=LINE('',#1170,#274);
#210=LINE('',#1173,#275);
#211=VECTOR('',#783,0.0316800000000006);
#212=VECTOR('',#792,0.033);
#213=VECTOR('',#797,0.033);
#214=VECTOR('',#806,0.043);
#215=VECTOR('',#813,0.043);
#216=VECTOR('',#818,0.063);
#217=VECTOR('',#823,0.063);
#218=VECTOR('',#830,39.3700787401575);
#219=VECTOR('',#833,39.3700787401575);
#220=VECTOR('',#838,39.3700787401575);
#221=VECTOR('',#841,39.3700787401575);
#222=VECTOR('',#846,39.3700787401575);
#223=VECTOR('',#849,39.3700787401575);
#224=VECTOR('',#854,39.3700787401575);
#225=VECTOR('',#857,39.3700787401575);
#226=VECTOR('',#860,39.3700787401575);
#227=VECTOR('',#861,39.3700787401575);
#228=VECTOR('',#864,39.3700787401575);
#229=VECTOR('',#865,39.3700787401575);
#230=VECTOR('',#866,39.3700787401575);
#231=VECTOR('',#867,39.3700787401575);
#232=VECTOR('',#868,39.3700787401575);
#233=VECTOR('',#869,39.3700787401575);
#234=VECTOR('',#872,39.3700787401575);
#235=VECTOR('',#873,39.3700787401575);
#236=VECTOR('',#874,39.3700787401575);
#237=VECTOR('',#877,39.3700787401575);
#238=VECTOR('',#878,39.3700787401575);
#239=VECTOR('',#879,39.3700787401575);
#240=VECTOR('',#880,39.3700787401575);
#241=VECTOR('',#881,39.3700787401575);
#242=VECTOR('',#884,39.3700787401575);
#243=VECTOR('',#885,39.3700787401575);
#244=VECTOR('',#892,39.3700787401575);
#245=VECTOR('',#893,39.3700787401575);
#246=VECTOR('',#902,0.043);
#247=VECTOR('',#909,0.043);
#248=VECTOR('',#914,0.063);
#249=VECTOR('',#919,0.063);
#250=VECTOR('',#926,39.3700787401575);
#251=VECTOR('',#929,39.3700787401575);
#252=VECTOR('',#934,39.3700787401575);
#253=VECTOR('',#937,39.3700787401575);
#254=VECTOR('',#940,39.3700787401575);
#255=VECTOR('',#941,39.3700787401575);
#256=VECTOR('',#942,39.3700787401575);
#257=VECTOR('',#943,39.3700787401575);
#258=VECTOR('',#944,39.3700787401575);
#259=VECTOR('',#945,39.3700787401575);
#260=VECTOR('',#946,39.3700787401575);
#261=VECTOR('',#949,39.3700787401575);
#262=VECTOR('',#950,39.3700787401575);
#263=VECTOR('',#951,39.3700787401575);
#264=VECTOR('',#954,39.3700787401575);
#265=VECTOR('',#955,39.3700787401575);
#266=VECTOR('',#956,39.3700787401575);
#267=VECTOR('',#957,39.3700787401575);
#268=VECTOR('',#958,39.3700787401575);
#269=VECTOR('',#959,39.3700787401575);
#270=VECTOR('',#962,39.3700787401575);
#271=VECTOR('',#963,39.3700787401575);
#272=VECTOR('',#966,39.3700787401575);
#273=VECTOR('',#969,39.3700787401575);
#274=VECTOR('',#972,39.3700787401575);
#275=VECTOR('',#977,39.3700787401575);
#276=CIRCLE('',#710,0.033);
#277=CIRCLE('',#711,0.0316800000000006);
#278=CIRCLE('',#713,0.033);
#279=CIRCLE('',#714,0.033);
#280=CIRCLE('',#715,0.0316799999999993);
#281=CIRCLE('',#720,0.043);
#282=CIRCLE('',#721,0.043);
#283=CIRCLE('',#723,0.043);
#284=CIRCLE('',#724,0.043);
#285=CIRCLE('',#726,0.063);
#286=CIRCLE('',#728,0.063);
#287=CIRCLE('',#730,0.0580000000000031);
#288=CIRCLE('',#731,0.0580000000000031);
#289=CIRCLE('',#733,0.033);
#290=CIRCLE('',#734,0.033);
#291=CIRCLE('',#736,0.0580000000000031);
#292=CIRCLE('',#737,0.0580000000000031);
#293=CIRCLE('',#739,0.033);
#294=CIRCLE('',#740,0.033);
#295=CIRCLE('',#752,0.043);
#296=CIRCLE('',#753,0.043);
#297=CIRCLE('',#755,0.043);
#298=CIRCLE('',#756,0.043);
#299=CIRCLE('',#758,0.063);
#300=CIRCLE('',#760,0.063);
#301=CIRCLE('',#762,0.033);
#302=CIRCLE('',#763,0.033);
#303=CIRCLE('',#765,0.0580000000000031);
#304=CIRCLE('',#766,0.0580000000000031);
#305=VERTEX_POINT('',#982);
#306=VERTEX_POINT('',#984);
#307=VERTEX_POINT('',#988);
#308=VERTEX_POINT('',#989);
#309=VERTEX_POINT('',#992);
#310=VERTEX_POINT('',#1000);
#311=VERTEX_POINT('',#1002);
#312=VERTEX_POINT('',#1006);
#313=VERTEX_POINT('',#1008);
#314=VERTEX_POINT('',#1012);
#315=VERTEX_POINT('',#1016);
#316=VERTEX_POINT('',#1020);
#317=VERTEX_POINT('',#1021);
#318=VERTEX_POINT('',#1023);
#319=VERTEX_POINT('',#1025);
#320=VERTEX_POINT('',#1029);
#321=VERTEX_POINT('',#1030);
#322=VERTEX_POINT('',#1032);
#323=VERTEX_POINT('',#1034);
#324=VERTEX_POINT('',#1038);
#325=VERTEX_POINT('',#1039);
#326=VERTEX_POINT('',#1041);
#327=VERTEX_POINT('',#1043);
#328=VERTEX_POINT('',#1047);
#329=VERTEX_POINT('',#1048);
#330=VERTEX_POINT('',#1050);
#331=VERTEX_POINT('',#1052);
#332=VERTEX_POINT('',#1059);
#333=VERTEX_POINT('',#1061);
#334=VERTEX_POINT('',#1064);
#335=VERTEX_POINT('',#1066);
#336=VERTEX_POINT('',#1070);
#337=VERTEX_POINT('',#1072);
#338=VERTEX_POINT('',#1076);
#339=VERTEX_POINT('',#1077);
#340=VERTEX_POINT('',#1094);
#341=VERTEX_POINT('',#1096);
#342=VERTEX_POINT('',#1100);
#343=VERTEX_POINT('',#1102);
#344=VERTEX_POINT('',#1106);
#345=VERTEX_POINT('',#1110);
#346=VERTEX_POINT('',#1114);
#347=VERTEX_POINT('',#1115);
#348=VERTEX_POINT('',#1117);
#349=VERTEX_POINT('',#1119);
#350=VERTEX_POINT('',#1123);
#351=VERTEX_POINT('',#1124);
#352=VERTEX_POINT('',#1126);
#353=VERTEX_POINT('',#1128);
#354=VERTEX_POINT('',#1132);
#355=VERTEX_POINT('',#1133);
#356=VERTEX_POINT('',#1136);
#357=VERTEX_POINT('',#1138);
#358=VERTEX_POINT('',#1140);
#359=VERTEX_POINT('',#1142);
#360=VERTEX_POINT('',#1146);
#361=VERTEX_POINT('',#1148);
#362=VERTEX_POINT('',#1152);
#363=VERTEX_POINT('',#1154);
#364=VERTEX_POINT('',#1157);
#365=VERTEX_POINT('',#1159);
#366=EDGE_CURVE('',#305,#305,#276,.T.);
#367=EDGE_CURVE('',#305,#306,#146,.T.);
#368=EDGE_CURVE('',#306,#306,#277,.T.);
#369=EDGE_CURVE('',#307,#308,#278,.T.);
#370=EDGE_CURVE('',#308,#307,#279,.T.);
#371=EDGE_CURVE('',#308,#309,#147,.T.);
#372=EDGE_CURVE('',#309,#309,#280,.T.);
#373=EDGE_CURVE('',#307,#305,#148,.T.);
#374=EDGE_CURVE('',#310,#310,#281,.T.);
#375=EDGE_CURVE('',#310,#311,#149,.T.);
#376=EDGE_CURVE('',#311,#311,#282,.T.);
#377=EDGE_CURVE('',#312,#312,#283,.T.);
#378=EDGE_CURVE('',#312,#313,#150,.T.);
#379=EDGE_CURVE('',#313,#313,#284,.T.);
#380=EDGE_CURVE('',#313,#314,#151,.T.);
#381=EDGE_CURVE('',#314,#314,#285,.T.);
#382=EDGE_CURVE('',#311,#315,#152,.T.);
#383=EDGE_CURVE('',#315,#315,#286,.T.);
#384=EDGE_CURVE('',#316,#317,#287,.T.);
#385=EDGE_CURVE('',#317,#318,#153,.T.);
#386=EDGE_CURVE('',#318,#319,#288,.T.);
#387=EDGE_CURVE('',#316,#319,#154,.T.);
#388=EDGE_CURVE('',#320,#321,#289,.T.);
#389=EDGE_CURVE('',#321,#322,#155,.T.);
#390=EDGE_CURVE('',#322,#323,#290,.T.);
#391=EDGE_CURVE('',#320,#323,#156,.T.);
#392=EDGE_CURVE('',#324,#325,#291,.T.);
#393=EDGE_CURVE('',#324,#326,#157,.T.);
#394=EDGE_CURVE('',#326,#327,#292,.T.);
#395=EDGE_CURVE('',#325,#327,#158,.T.);
#396=EDGE_CURVE('',#328,#329,#293,.T.);
#397=EDGE_CURVE('',#328,#330,#159,.T.);
#398=EDGE_CURVE('',#330,#331,#294,.T.);
#399=EDGE_CURVE('',#329,#331,#160,.T.);
#400=EDGE_CURVE('',#327,#330,#161,.T.);
#401=EDGE_CURVE('',#325,#328,#162,.T.);
#402=EDGE_CURVE('',#331,#332,#163,.T.);
#403=EDGE_CURVE('',#332,#333,#164,.T.);
#404=EDGE_CURVE('',#333,#320,#165,.T.);
#405=EDGE_CURVE('',#323,#334,#166,.T.);
#406=EDGE_CURVE('',#335,#334,#167,.T.);
#407=EDGE_CURVE('',#329,#335,#168,.T.);
#408=EDGE_CURVE('',#334,#336,#169,.T.);
#409=EDGE_CURVE('',#337,#336,#170,.T.);
#410=EDGE_CURVE('',#335,#337,#171,.T.);
#411=EDGE_CURVE('',#338,#339,#172,.T.);
#412=EDGE_CURVE('',#339,#326,#173,.T.);
#413=EDGE_CURVE('',#337,#324,#174,.T.);
#414=EDGE_CURVE('',#336,#318,#175,.T.);
#415=EDGE_CURVE('',#317,#338,#176,.T.);
#416=EDGE_CURVE('',#321,#316,#177,.T.);
#417=EDGE_CURVE('',#319,#322,#178,.T.);
#418=EDGE_CURVE('',#339,#332,#179,.T.);
#419=EDGE_CURVE('',#338,#333,#180,.T.);
#420=EDGE_CURVE('',#340,#340,#295,.T.);
#421=EDGE_CURVE('',#340,#341,#181,.T.);
#422=EDGE_CURVE('',#341,#341,#296,.T.);
#423=EDGE_CURVE('',#342,#342,#297,.T.);
#424=EDGE_CURVE('',#342,#343,#182,.T.);
#425=EDGE_CURVE('',#343,#343,#298,.T.);
#426=EDGE_CURVE('',#343,#344,#183,.T.);
#427=EDGE_CURVE('',#344,#344,#299,.T.);
#428=EDGE_CURVE('',#341,#345,#184,.T.);
#429=EDGE_CURVE('',#345,#345,#300,.T.);
#430=EDGE_CURVE('',#346,#347,#301,.T.);
#431=EDGE_CURVE('',#347,#348,#185,.T.);
#432=EDGE_CURVE('',#348,#349,#302,.T.);
#433=EDGE_CURVE('',#346,#349,#186,.T.);
#434=EDGE_CURVE('',#350,#351,#303,.T.);
#435=EDGE_CURVE('',#351,#352,#187,.T.);
#436=EDGE_CURVE('',#352,#353,#304,.T.);
#437=EDGE_CURVE('',#350,#353,#188,.T.);
#438=EDGE_CURVE('',#354,#355,#189,.T.);
#439=EDGE_CURVE('',#355,#346,#190,.T.);
#440=EDGE_CURVE('',#349,#356,#191,.T.);
#441=EDGE_CURVE('',#356,#357,#192,.T.);
#442=EDGE_CURVE('',#357,#358,#193,.T.);
#443=EDGE_CURVE('',#359,#358,#194,.T.);
#444=EDGE_CURVE('',#354,#359,#195,.T.);
#445=EDGE_CURVE('',#358,#360,#196,.T.);
#446=EDGE_CURVE('',#361,#360,#197,.T.);
#447=EDGE_CURVE('',#359,#361,#198,.T.);
#448=EDGE_CURVE('',#351,#362,#199,.T.);
#449=EDGE_CURVE('',#362,#363,#200,.T.);
#450=EDGE_CURVE('',#361,#363,#201,.T.);
#451=EDGE_CURVE('',#360,#364,#202,.T.);
#452=EDGE_CURVE('',#364,#365,#203,.T.);
#453=EDGE_CURVE('',#365,#352,#204,.T.);
#454=EDGE_CURVE('',#347,#350,#205,.T.);
#455=EDGE_CURVE('',#353,#348,#206,.T.);
#456=EDGE_CURVE('',#363,#354,#207,.T.);
#457=EDGE_CURVE('',#364,#357,#208,.T.);
#458=EDGE_CURVE('',#365,#356,#209,.T.);
#459=EDGE_CURVE('',#362,#355,#210,.T.);
#460=ORIENTED_EDGE('',*,*,#366,.F.);
#461=ORIENTED_EDGE('',*,*,#367,.T.);
#462=ORIENTED_EDGE('',*,*,#368,.F.);
#463=ORIENTED_EDGE('',*,*,#367,.F.);
#464=ORIENTED_EDGE('',*,*,#369,.F.);
#465=ORIENTED_EDGE('',*,*,#370,.F.);
#466=ORIENTED_EDGE('',*,*,#371,.T.);
#467=ORIENTED_EDGE('',*,*,#372,.F.);
#468=ORIENTED_EDGE('',*,*,#371,.F.);
#469=ORIENTED_EDGE('',*,*,#369,.T.);
#470=ORIENTED_EDGE('',*,*,#370,.T.);
#471=ORIENTED_EDGE('',*,*,#373,.T.);
#472=ORIENTED_EDGE('',*,*,#366,.T.);
#473=ORIENTED_EDGE('',*,*,#373,.F.);
#474=ORIENTED_EDGE('',*,*,#368,.T.);
#475=ORIENTED_EDGE('',*,*,#372,.T.);
#476=ORIENTED_EDGE('',*,*,#374,.F.);
#477=ORIENTED_EDGE('',*,*,#375,.T.);
#478=ORIENTED_EDGE('',*,*,#376,.F.);
#479=ORIENTED_EDGE('',*,*,#375,.F.);
#480=ORIENTED_EDGE('',*,*,#377,.F.);
#481=ORIENTED_EDGE('',*,*,#378,.T.);
#482=ORIENTED_EDGE('',*,*,#379,.F.);
#483=ORIENTED_EDGE('',*,*,#378,.F.);
#484=ORIENTED_EDGE('',*,*,#379,.T.);
#485=ORIENTED_EDGE('',*,*,#380,.T.);
#486=ORIENTED_EDGE('',*,*,#381,.T.);
#487=ORIENTED_EDGE('',*,*,#380,.F.);
#488=ORIENTED_EDGE('',*,*,#376,.T.);
#489=ORIENTED_EDGE('',*,*,#382,.T.);
#490=ORIENTED_EDGE('',*,*,#383,.T.);
#491=ORIENTED_EDGE('',*,*,#382,.F.);
#492=ORIENTED_EDGE('',*,*,#384,.T.);
#493=ORIENTED_EDGE('',*,*,#385,.T.);
#494=ORIENTED_EDGE('',*,*,#386,.T.);
#495=ORIENTED_EDGE('',*,*,#387,.F.);
#496=ORIENTED_EDGE('',*,*,#388,.T.);
#497=ORIENTED_EDGE('',*,*,#389,.T.);
#498=ORIENTED_EDGE('',*,*,#390,.T.);
#499=ORIENTED_EDGE('',*,*,#391,.F.);
#500=ORIENTED_EDGE('',*,*,#392,.F.);
#501=ORIENTED_EDGE('',*,*,#393,.T.);
#502=ORIENTED_EDGE('',*,*,#394,.T.);
#503=ORIENTED_EDGE('',*,*,#395,.F.);
#504=ORIENTED_EDGE('',*,*,#396,.F.);
#505=ORIENTED_EDGE('',*,*,#397,.T.);
#506=ORIENTED_EDGE('',*,*,#398,.T.);
#507=ORIENTED_EDGE('',*,*,#399,.F.);
#508=ORIENTED_EDGE('',*,*,#395,.T.);
#509=ORIENTED_EDGE('',*,*,#400,.T.);
#510=ORIENTED_EDGE('',*,*,#397,.F.);
#511=ORIENTED_EDGE('',*,*,#401,.F.);
#512=ORIENTED_EDGE('',*,*,#399,.T.);
#513=ORIENTED_EDGE('',*,*,#402,.T.);
#514=ORIENTED_EDGE('',*,*,#403,.T.);
#515=ORIENTED_EDGE('',*,*,#404,.T.);
#516=ORIENTED_EDGE('',*,*,#391,.T.);
#517=ORIENTED_EDGE('',*,*,#405,.T.);
#518=ORIENTED_EDGE('',*,*,#406,.F.);
#519=ORIENTED_EDGE('',*,*,#407,.F.);
#520=ORIENTED_EDGE('',*,*,#381,.F.);
#521=ORIENTED_EDGE('',*,*,#383,.F.);
#522=ORIENTED_EDGE('',*,*,#408,.T.);
#523=ORIENTED_EDGE('',*,*,#409,.F.);
#524=ORIENTED_EDGE('',*,*,#410,.F.);
#525=ORIENTED_EDGE('',*,*,#406,.T.);
#526=ORIENTED_EDGE('',*,*,#411,.T.);
#527=ORIENTED_EDGE('',*,*,#412,.T.);
#528=ORIENTED_EDGE('',*,*,#393,.F.);
#529=ORIENTED_EDGE('',*,*,#413,.F.);
#530=ORIENTED_EDGE('',*,*,#409,.T.);
#531=ORIENTED_EDGE('',*,*,#414,.T.);
#532=ORIENTED_EDGE('',*,*,#385,.F.);
#533=ORIENTED_EDGE('',*,*,#415,.T.);
#534=ORIENTED_EDGE('',*,*,#377,.T.);
#535=ORIENTED_EDGE('',*,*,#374,.T.);
#536=ORIENTED_EDGE('',*,*,#389,.F.);
#537=ORIENTED_EDGE('',*,*,#416,.T.);
#538=ORIENTED_EDGE('',*,*,#387,.T.);
#539=ORIENTED_EDGE('',*,*,#417,.T.);
#540=ORIENTED_EDGE('',*,*,#396,.T.);
#541=ORIENTED_EDGE('',*,*,#407,.T.);
#542=ORIENTED_EDGE('',*,*,#410,.T.);
#543=ORIENTED_EDGE('',*,*,#413,.T.);
#544=ORIENTED_EDGE('',*,*,#392,.T.);
#545=ORIENTED_EDGE('',*,*,#401,.T.);
#546=ORIENTED_EDGE('',*,*,#390,.F.);
#547=ORIENTED_EDGE('',*,*,#417,.F.);
#548=ORIENTED_EDGE('',*,*,#386,.F.);
#549=ORIENTED_EDGE('',*,*,#414,.F.);
#550=ORIENTED_EDGE('',*,*,#408,.F.);
#551=ORIENTED_EDGE('',*,*,#405,.F.);
#552=ORIENTED_EDGE('',*,*,#418,.F.);
#553=ORIENTED_EDGE('',*,*,#411,.F.);
#554=ORIENTED_EDGE('',*,*,#419,.T.);
#555=ORIENTED_EDGE('',*,*,#403,.F.);
#556=ORIENTED_EDGE('',*,*,#398,.F.);
#557=ORIENTED_EDGE('',*,*,#400,.F.);
#558=ORIENTED_EDGE('',*,*,#394,.F.);
#559=ORIENTED_EDGE('',*,*,#412,.F.);
#560=ORIENTED_EDGE('',*,*,#418,.T.);
#561=ORIENTED_EDGE('',*,*,#402,.F.);
#562=ORIENTED_EDGE('',*,*,#384,.F.);
#563=ORIENTED_EDGE('',*,*,#416,.F.);
#564=ORIENTED_EDGE('',*,*,#388,.F.);
#565=ORIENTED_EDGE('',*,*,#404,.F.);
#566=ORIENTED_EDGE('',*,*,#419,.F.);
#567=ORIENTED_EDGE('',*,*,#415,.F.);
#568=ORIENTED_EDGE('',*,*,#420,.F.);
#569=ORIENTED_EDGE('',*,*,#421,.T.);
#570=ORIENTED_EDGE('',*,*,#422,.F.);
#571=ORIENTED_EDGE('',*,*,#421,.F.);
#572=ORIENTED_EDGE('',*,*,#423,.F.);
#573=ORIENTED_EDGE('',*,*,#424,.T.);
#574=ORIENTED_EDGE('',*,*,#425,.F.);
#575=ORIENTED_EDGE('',*,*,#424,.F.);
#576=ORIENTED_EDGE('',*,*,#425,.T.);
#577=ORIENTED_EDGE('',*,*,#426,.T.);
#578=ORIENTED_EDGE('',*,*,#427,.T.);
#579=ORIENTED_EDGE('',*,*,#426,.F.);
#580=ORIENTED_EDGE('',*,*,#422,.T.);
#581=ORIENTED_EDGE('',*,*,#428,.T.);
#582=ORIENTED_EDGE('',*,*,#429,.T.);
#583=ORIENTED_EDGE('',*,*,#428,.F.);
#584=ORIENTED_EDGE('',*,*,#430,.T.);
#585=ORIENTED_EDGE('',*,*,#431,.T.);
#586=ORIENTED_EDGE('',*,*,#432,.T.);
#587=ORIENTED_EDGE('',*,*,#433,.F.);
#588=ORIENTED_EDGE('',*,*,#434,.T.);
#589=ORIENTED_EDGE('',*,*,#435,.T.);
#590=ORIENTED_EDGE('',*,*,#436,.T.);
#591=ORIENTED_EDGE('',*,*,#437,.F.);
#592=ORIENTED_EDGE('',*,*,#438,.T.);
#593=ORIENTED_EDGE('',*,*,#439,.T.);
#594=ORIENTED_EDGE('',*,*,#433,.T.);
#595=ORIENTED_EDGE('',*,*,#440,.T.);
#596=ORIENTED_EDGE('',*,*,#441,.T.);
#597=ORIENTED_EDGE('',*,*,#442,.T.);
#598=ORIENTED_EDGE('',*,*,#443,.F.);
#599=ORIENTED_EDGE('',*,*,#444,.F.);
#600=ORIENTED_EDGE('',*,*,#427,.F.);
#601=ORIENTED_EDGE('',*,*,#429,.F.);
#602=ORIENTED_EDGE('',*,*,#445,.T.);
#603=ORIENTED_EDGE('',*,*,#446,.F.);
#604=ORIENTED_EDGE('',*,*,#447,.F.);
#605=ORIENTED_EDGE('',*,*,#443,.T.);
#606=ORIENTED_EDGE('',*,*,#435,.F.);
#607=ORIENTED_EDGE('',*,*,#448,.T.);
#608=ORIENTED_EDGE('',*,*,#449,.T.);
#609=ORIENTED_EDGE('',*,*,#450,.F.);
#610=ORIENTED_EDGE('',*,*,#446,.T.);
#611=ORIENTED_EDGE('',*,*,#451,.T.);
#612=ORIENTED_EDGE('',*,*,#452,.T.);
#613=ORIENTED_EDGE('',*,*,#453,.T.);
#614=ORIENTED_EDGE('',*,*,#420,.T.);
#615=ORIENTED_EDGE('',*,*,#423,.T.);
#616=ORIENTED_EDGE('',*,*,#431,.F.);
#617=ORIENTED_EDGE('',*,*,#454,.T.);
#618=ORIENTED_EDGE('',*,*,#437,.T.);
#619=ORIENTED_EDGE('',*,*,#455,.T.);
#620=ORIENTED_EDGE('',*,*,#450,.T.);
#621=ORIENTED_EDGE('',*,*,#456,.T.);
#622=ORIENTED_EDGE('',*,*,#444,.T.);
#623=ORIENTED_EDGE('',*,*,#447,.T.);
#624=ORIENTED_EDGE('',*,*,#457,.F.);
#625=ORIENTED_EDGE('',*,*,#451,.F.);
#626=ORIENTED_EDGE('',*,*,#445,.F.);
#627=ORIENTED_EDGE('',*,*,#442,.F.);
#628=ORIENTED_EDGE('',*,*,#432,.F.);
#629=ORIENTED_EDGE('',*,*,#455,.F.);
#630=ORIENTED_EDGE('',*,*,#436,.F.);
#631=ORIENTED_EDGE('',*,*,#453,.F.);
#632=ORIENTED_EDGE('',*,*,#458,.T.);
#633=ORIENTED_EDGE('',*,*,#440,.F.);
#634=ORIENTED_EDGE('',*,*,#458,.F.);
#635=ORIENTED_EDGE('',*,*,#452,.F.);
#636=ORIENTED_EDGE('',*,*,#457,.T.);
#637=ORIENTED_EDGE('',*,*,#441,.F.);
#638=ORIENTED_EDGE('',*,*,#434,.F.);
#639=ORIENTED_EDGE('',*,*,#454,.F.);
#640=ORIENTED_EDGE('',*,*,#430,.F.);
#641=ORIENTED_EDGE('',*,*,#439,.F.);
#642=ORIENTED_EDGE('',*,*,#459,.F.);
#643=ORIENTED_EDGE('',*,*,#448,.F.);
#644=ORIENTED_EDGE('',*,*,#456,.F.);
#645=ORIENTED_EDGE('',*,*,#449,.F.);
#646=ORIENTED_EDGE('',*,*,#459,.T.);
#647=ORIENTED_EDGE('',*,*,#438,.F.);
#648=CONICAL_SURFACE('',#709,0.0316800000000006,0.785398163397465);
#649=CONICAL_SURFACE('',#712,0.033,0.78539816339749);
#650=CONICAL_SURFACE('',#725,0.063,0.715584993317677);
#651=CONICAL_SURFACE('',#727,0.063,0.715584993317677);
#652=CONICAL_SURFACE('',#757,0.063,0.78539816339745);
#653=CONICAL_SURFACE('',#759,0.063,0.78539816339745);
#654=ADVANCED_FACE('',(#60),#648,.T.);
#655=ADVANCED_FACE('',(#61),#649,.T.);
#656=ADVANCED_FACE('',(#62),#49,.T.);
#657=ADVANCED_FACE('',(#63),#27,.T.);
#658=ADVANCED_FACE('',(#64),#28,.F.);
#659=ADVANCED_FACE('',(#65),#50,.F.);
#660=ADVANCED_FACE('',(#66),#51,.F.);
#661=ADVANCED_FACE('',(#67),#650,.F.);
#662=ADVANCED_FACE('',(#68),#651,.F.);
#663=ADVANCED_FACE('',(#69),#52,.T.);
#664=ADVANCED_FACE('',(#70),#53,.F.);
#665=ADVANCED_FACE('',(#71),#54,.T.);
#666=ADVANCED_FACE('',(#72),#55,.F.);
#667=ADVANCED_FACE('',(#73),#29,.F.);
#668=ADVANCED_FACE('',(#74,#13,#14),#30,.F.);
#669=ADVANCED_FACE('',(#75),#31,.F.);
#670=ADVANCED_FACE('',(#76,#15,#16),#32,.F.);
#671=ADVANCED_FACE('',(#77),#33,.F.);
#672=ADVANCED_FACE('',(#78),#34,.F.);
#673=ADVANCED_FACE('',(#79),#35,.T.);
#674=ADVANCED_FACE('',(#80),#36,.F.);
#675=ADVANCED_FACE('',(#81),#37,.F.);
#676=ADVANCED_FACE('',(#82),#38,.F.);
#677=ADVANCED_FACE('',(#83),#56,.F.);
#678=ADVANCED_FACE('',(#84),#57,.F.);
#679=ADVANCED_FACE('',(#85),#652,.F.);
#680=ADVANCED_FACE('',(#86),#653,.F.);
#681=ADVANCED_FACE('',(#87),#58,.F.);
#682=ADVANCED_FACE('',(#88),#59,.T.);
#683=ADVANCED_FACE('',(#89,#17,#18),#39,.F.);
#684=ADVANCED_FACE('',(#90),#40,.F.);
#685=ADVANCED_FACE('',(#91,#19,#20),#41,.F.);
#686=ADVANCED_FACE('',(#92),#42,.F.);
#687=ADVANCED_FACE('',(#93),#43,.F.);
#688=ADVANCED_FACE('',(#94),#44,.T.);
#689=ADVANCED_FACE('',(#95),#45,.F.);
#690=ADVANCED_FACE('',(#96),#46,.F.);
#691=ADVANCED_FACE('',(#97),#47,.F.);
#692=ADVANCED_FACE('',(#98),#48,.F.);
#693=CLOSED_SHELL('',(#654,#655,#656,#657,#658));
#694=CLOSED_SHELL('',(#659,#660,#661,#662,#663,#664,#665,#666,#667,#668,
#669,#670,#671,#672,#673,#674,#675,#676));
#695=CLOSED_SHELL('',(#677,#678,#679,#680,#681,#682,#683,#684,#685,#686,
#687,#688,#689,#690,#691,#692));
#696=DERIVED_UNIT_ELEMENT(#698,1.);
#697=DERIVED_UNIT_ELEMENT(#1182,-3.);
#698=(
MASS_UNIT()
NAMED_UNIT(*)
SI_UNIT(.KILO.,.GRAM.)
);
#699=DERIVED_UNIT((#696,#697));
#700=MEASURE_REPRESENTATION_ITEM('density measure',
POSITIVE_RATIO_MEASURE(7850.),#699);
#701=PROPERTY_DEFINITION_REPRESENTATION(#706,#703);
#702=PROPERTY_DEFINITION_REPRESENTATION(#707,#704);
#703=REPRESENTATION('material name',(#705),#1177);
#704=REPRESENTATION('density',(#700),#1177);
#705=DESCRIPTIVE_REPRESENTATION_ITEM('Steel','Steel');
#706=PROPERTY_DEFINITION('material property','material name',#1190);
#707=PROPERTY_DEFINITION('material property','density of part',#1190);
#708=AXIS2_PLACEMENT_3D('',#980,#777,#778);
#709=AXIS2_PLACEMENT_3D('',#981,#779,#780);
#710=AXIS2_PLACEMENT_3D('',#983,#781,#782);
#711=AXIS2_PLACEMENT_3D('',#986,#784,#785);
#712=AXIS2_PLACEMENT_3D('',#987,#786,#787);
#713=AXIS2_PLACEMENT_3D('',#990,#788,#789);
#714=AXIS2_PLACEMENT_3D('',#991,#790,#791);
#715=AXIS2_PLACEMENT_3D('',#994,#793,#794);
#716=AXIS2_PLACEMENT_3D('',#995,#795,#796);
#717=AXIS2_PLACEMENT_3D('',#997,#798,#799);
#718=AXIS2_PLACEMENT_3D('',#998,#800,#801);
#719=AXIS2_PLACEMENT_3D('',#999,#802,#803);
#720=AXIS2_PLACEMENT_3D('',#1001,#804,#805);
#721=AXIS2_PLACEMENT_3D('',#1004,#807,#808);
#722=AXIS2_PLACEMENT_3D('',#1005,#809,#810);
#723=AXIS2_PLACEMENT_3D('',#1007,#811,#812);
#724=AXIS2_PLACEMENT_3D('',#1010,#814,#815);
#725=AXIS2_PLACEMENT_3D('',#1011,#816,#817);
#726=AXIS2_PLACEMENT_3D('',#1014,#819,#820);
#727=AXIS2_PLACEMENT_3D('',#1015,#821,#822);
#728=AXIS2_PLACEMENT_3D('',#1018,#824,#825);
#729=AXIS2_PLACEMENT_3D('',#1019,#826,#827);
#730=AXIS2_PLACEMENT_3D('',#1022,#828,#829);
#731=AXIS2_PLACEMENT_3D('',#1026,#831,#832);
#732=AXIS2_PLACEMENT_3D('',#1028,#834,#835);
#733=AXIS2_PLACEMENT_3D('',#1031,#836,#837);
#734=AXIS2_PLACEMENT_3D('',#1035,#839,#840);
#735=AXIS2_PLACEMENT_3D('',#1037,#842,#843);
#736=AXIS2_PLACEMENT_3D('',#1040,#844,#845);
#737=AXIS2_PLACEMENT_3D('',#1044,#847,#848);
#738=AXIS2_PLACEMENT_3D('',#1046,#850,#851);
#739=AXIS2_PLACEMENT_3D('',#1049,#852,#853);
#740=AXIS2_PLACEMENT_3D('',#1053,#855,#856);
#741=AXIS2_PLACEMENT_3D('',#1055,#858,#859);
#742=AXIS2_PLACEMENT_3D('',#1058,#862,#863);
#743=AXIS2_PLACEMENT_3D('',#1069,#870,#871);
#744=AXIS2_PLACEMENT_3D('',#1075,#875,#876);
#745=AXIS2_PLACEMENT_3D('',#1083,#882,#883);
#746=AXIS2_PLACEMENT_3D('',#1086,#886,#887);
#747=AXIS2_PLACEMENT_3D('',#1087,#888,#889);
#748=AXIS2_PLACEMENT_3D('',#1088,#890,#891);
#749=AXIS2_PLACEMENT_3D('',#1091,#894,#895);
#750=AXIS2_PLACEMENT_3D('',#1092,#896,#897);
#751=AXIS2_PLACEMENT_3D('',#1093,#898,#899);
#752=AXIS2_PLACEMENT_3D('',#1095,#900,#901);
#753=AXIS2_PLACEMENT_3D('',#1098,#903,#904);
#754=AXIS2_PLACEMENT_3D('',#1099,#905,#906);
#755=AXIS2_PLACEMENT_3D('',#1101,#907,#908);
#756=AXIS2_PLACEMENT_3D('',#1104,#910,#911);
#757=AXIS2_PLACEMENT_3D('',#1105,#912,#913);
#758=AXIS2_PLACEMENT_3D('',#1108,#915,#916);
#759=AXIS2_PLACEMENT_3D('',#1109,#917,#918);
#760=AXIS2_PLACEMENT_3D('',#1112,#920,#921);
#761=AXIS2_PLACEMENT_3D('',#1113,#922,#923);
#762=AXIS2_PLACEMENT_3D('',#1116,#924,#925);
#763=AXIS2_PLACEMENT_3D('',#1120,#927,#928);
#764=AXIS2_PLACEMENT_3D('',#1122,#930,#931);
#765=AXIS2_PLACEMENT_3D('',#1125,#932,#933);
#766=AXIS2_PLACEMENT_3D('',#1129,#935,#936);
#767=AXIS2_PLACEMENT_3D('',#1131,#938,#939);
#768=AXIS2_PLACEMENT_3D('',#1145,#947,#948);
#769=AXIS2_PLACEMENT_3D('',#1151,#952,#953);
#770=AXIS2_PLACEMENT_3D('',#1162,#960,#961);
#771=AXIS2_PLACEMENT_3D('',#1165,#964,#965);
#772=AXIS2_PLACEMENT_3D('',#1167,#967,#968);
#773=AXIS2_PLACEMENT_3D('',#1169,#970,#971);
#774=AXIS2_PLACEMENT_3D('',#1171,#973,#974);
#775=AXIS2_PLACEMENT_3D('',#1172,#975,#976);
#776=AXIS2_PLACEMENT_3D('',#1174,#978,#979);
#777=DIRECTION('axis',(0.,0.,1.));
#778=DIRECTION('refdir',(1.,0.,0.));
#779=DIRECTION('center_axis',(-1.,0.,0.));
#780=DIRECTION('ref_axis',(0.,0.,1.));
#781=DIRECTION('center_axis',(-1.,0.,0.));
#782=DIRECTION('ref_axis',(0.,0.,-1.));
#783=DIRECTION('',(0.707106781186536,8.65956056235507E-17,0.707106781186559));
#784=DIRECTION('center_axis',(1.,0.,0.));
#785=DIRECTION('ref_axis',(0.,0.,-1.));
#786=DIRECTION('center_axis',(1.,0.,0.));
#787=DIRECTION('ref_axis',(0.,0.,-1.));
#788=DIRECTION('center_axis',(1.,0.,0.));
#789=DIRECTION('ref_axis',(0.,0.,-1.));
#790=DIRECTION('center_axis',(1.,0.,0.));
#791=DIRECTION('ref_axis',(0.,0.,-1.));
#792=DIRECTION('',(-0.707106781186518,8.6595605623553E-17,-0.707106781186577));
#793=DIRECTION('center_axis',(-1.,0.,0.));
#794=DIRECTION('ref_axis',(0.,0.,-1.));
#795=DIRECTION('center_axis',(-1.,0.,0.));
#796=DIRECTION('ref_axis',(0.,0.,1.));
#797=DIRECTION('',(1.,0.,0.));
#798=DIRECTION('center_axis',(1.,0.,0.));
#799=DIRECTION('ref_axis',(0.,0.,-1.));
#800=DIRECTION('center_axis',(1.,0.,0.));
#801=DIRECTION('ref_axis',(0.,0.,-1.));
#802=DIRECTION('center_axis',(0.,1.,0.));
#803=DIRECTION('ref_axis',(0.,0.,1.));
#804=DIRECTION('center_axis',(0.,1.,0.));
#805=DIRECTION('ref_axis',(0.,0.,1.));
#806=DIRECTION('',(0.,1.,0.));
#807=DIRECTION('center_axis',(0.,-1.,0.));
#808=DIRECTION('ref_axis',(0.,0.,1.));
#809=DIRECTION('center_axis',(0.,1.,0.));
#810=DIRECTION('ref_axis',(0.,0.,1.));
#811=DIRECTION('center_axis',(0.,1.,0.));
#812=DIRECTION('ref_axis',(0.,0.,1.));
#813=DIRECTION('',(0.,1.,0.));
#814=DIRECTION('center_axis',(0.,-1.,0.));
#815=DIRECTION('ref_axis',(0.,0.,1.));
#816=DIRECTION('center_axis',(0.,1.,0.));
#817=DIRECTION('ref_axis',(0.,0.,1.));
#818=DIRECTION('',(-8.03440589904947E-17,0.754709580222771,-0.656059028990508));
#819=DIRECTION('center_axis',(0.,1.,0.));
#820=DIRECTION('ref_axis',(0.,0.,1.));
#821=DIRECTION('center_axis',(0.,1.,0.));
#822=DIRECTION('ref_axis',(0.,0.,1.));
#823=DIRECTION('',(-8.03440589904947E-17,0.754709580222771,-0.656059028990508));
#824=DIRECTION('center_axis',(0.,1.,0.));
#825=DIRECTION('ref_axis',(0.,0.,1.));
#826=DIRECTION('center_axis',(-1.,0.,0.));
#827=DIRECTION('ref_axis',(0.,0.864443245463536,-0.50273042017812));
#828=DIRECTION('center_axis',(-1.,0.,1.47190085865519E-16));
#829=DIRECTION('ref_axis',(1.47190085865519E-16,0.,1.));
#830=DIRECTION('',(-1.,0.,0.));
#831=DIRECTION('center_axis',(1.,0.,0.));
#832=DIRECTION('ref_axis',(0.,0.,1.));
#833=DIRECTION('',(-1.,0.,0.));
#834=DIRECTION('center_axis',(-1.,0.,0.));
#835=DIRECTION('ref_axis',(0.,0.864443245463536,-0.50273042017812));
#836=DIRECTION('center_axis',(1.,0.,-1.47190085865519E-16));
#837=DIRECTION('ref_axis',(1.47190085865519E-16,8.88178419700125E-16,1.));
#838=DIRECTION('',(-1.,0.,0.));
#839=DIRECTION('center_axis',(-1.,0.,0.));
#840=DIRECTION('ref_axis',(0.,0.,1.));
#841=DIRECTION('',(-1.,0.,0.));
#842=DIRECTION('center_axis',(-1.,0.,0.));
#843=DIRECTION('ref_axis',(0.,0.864443245463536,-0.50273042017812));
#844=DIRECTION('center_axis',(1.,0.,0.));
#845=DIRECTION('ref_axis',(0.,0.,1.));
#846=DIRECTION('',(-1.,0.,0.));
#847=DIRECTION('center_axis',(1.,0.,-1.47190085865519E-16));
#848=DIRECTION('ref_axis',(-1.47190085865519E-16,0.,-1.));
#849=DIRECTION('',(-1.,0.,0.));
#850=DIRECTION('center_axis',(-1.,0.,0.));
#851=DIRECTION('ref_axis',(0.,0.864443245463536,-0.50273042017812));
#852=DIRECTION('center_axis',(-1.,0.,0.));
#853=DIRECTION('ref_axis',(0.,0.,1.));
#854=DIRECTION('',(-1.,0.,0.));
#855=DIRECTION('center_axis',(-1.,0.,1.47190085865519E-16));
#856=DIRECTION('ref_axis',(-1.47190085865519E-16,0.,-1.));
#857=DIRECTION('',(-1.,0.,0.));
#858=DIRECTION('center_axis',(0.,0.869163832024043,0.49452424925506));
#859=DIRECTION('ref_axis',(0.,-0.49452424925506,0.869163832024043));
#860=DIRECTION('',(-1.27932299066822E-16,0.49452424925506,-0.869163832024043));
#861=DIRECTION('',(0.,0.49452424925506,-0.869163832024043));
#862=DIRECTION('center_axis',(0.,-1.,0.));
#863=DIRECTION('ref_axis',(0.,0.,-1.));
#864=DIRECTION('',(1.47190085865519E-16,0.,1.));
#865=DIRECTION('',(-1.,0.,1.70740499604016E-16));
#866=DIRECTION('',(-1.47190085865519E-16,0.,-1.));
#867=DIRECTION('',(0.,0.,1.));
#868=DIRECTION('',(-1.,0.,0.));
#869=DIRECTION('',(0.,0.,1.));
#870=DIRECTION('center_axis',(0.,0.,-1.));
#871=DIRECTION('ref_axis',(-1.,0.,0.));
#872=DIRECTION('',(0.,-1.,0.));
#873=DIRECTION('',(-1.,0.,0.));
#874=DIRECTION('',(0.,-1.,0.));
#875=DIRECTION('center_axis',(0.,1.,1.0909936076934E-16));
#876=DIRECTION('ref_axis',(0.,-1.0909936076934E-16,1.));
#877=DIRECTION('',(1.,0.,-1.70740499604016E-16));
#878=DIRECTION('',(-1.47190085865519E-16,0.,-1.));
#879=DIRECTION('',(0.,1.0909936076934E-16,-1.));
#880=DIRECTION('',(0.,1.0909936076934E-16,-1.));
#881=DIRECTION('',(1.47190085865519E-16,0.,1.));
#882=DIRECTION('center_axis',(0.,0.869163832024043,0.49452424925506));
#883=DIRECTION('ref_axis',(0.,-0.49452424925506,0.869163832024043));
#884=DIRECTION('',(1.27932299066822E-16,-0.49452424925506,0.869163832024043));
#885=DIRECTION('',(0.,0.49452424925506,-0.869163832024043));
#886=DIRECTION('center_axis',(-1.,0.,0.));
#887=DIRECTION('ref_axis',(0.,0.,1.));
#888=DIRECTION('center_axis',(-1.,0.,0.));
#889=DIRECTION('ref_axis',(0.,0.,1.));
#890=DIRECTION('center_axis',(1.70740499604016E-16,0.,1.));
#891=DIRECTION('ref_axis',(1.,0.,-1.70740499604016E-16));
#892=DIRECTION('',(0.,1.,0.));
#893=DIRECTION('',(0.,1.,0.));
#894=DIRECTION('center_axis',(1.,0.,-1.47190085865519E-16));
#895=DIRECTION('ref_axis',(-1.47190085865519E-16,0.,-1.));
#896=DIRECTION('center_axis',(-1.,0.,1.47190085865519E-16));
#897=DIRECTION('ref_axis',(1.47190085865519E-16,0.,1.));
#898=DIRECTION('center_axis',(0.,1.,6.12323399573677E-16));
#899=DIRECTION('ref_axis',(0.,-6.12323399573677E-16,1.));
#900=DIRECTION('center_axis',(0.,1.,6.12323399573677E-16));
#901=DIRECTION('ref_axis',(0.,-6.12323399573677E-16,1.));
#902=DIRECTION('',(0.,1.,6.12323399573677E-16));
#903=DIRECTION('center_axis',(0.,-1.,-6.12323399573677E-16));
#904=DIRECTION('ref_axis',(0.,-6.12323399573677E-16,1.));
#905=DIRECTION('center_axis',(0.,1.,6.12323399573677E-16));
#906=DIRECTION('ref_axis',(0.,-6.12323399573677E-16,1.));
#907=DIRECTION('center_axis',(0.,1.,6.12323399573677E-16));
#908=DIRECTION('ref_axis',(0.,-6.12323399573677E-16,1.));
#909=DIRECTION('',(0.,1.,6.12323399573677E-16));
#910=DIRECTION('center_axis',(0.,-1.,-6.12323399573677E-16));
#911=DIRECTION('ref_axis',(0.,-6.12323399573677E-16,1.));
#912=DIRECTION('center_axis',(0.,1.,6.12323399573677E-16));
#913=DIRECTION('ref_axis',(0.,-6.12323399573677E-16,1.));
#914=DIRECTION('',(-8.65956056235495E-17,0.707106781186547,-0.707106781186548));
#915=DIRECTION('center_axis',(0.,1.,6.12323399573677E-16));
#916=DIRECTION('ref_axis',(0.,-6.12323399573677E-16,1.));
#917=DIRECTION('center_axis',(0.,1.,6.12323399573677E-16));
#918=DIRECTION('ref_axis',(0.,-6.12323399573677E-16,1.));
#919=DIRECTION('',(-8.65956056235495E-17,0.707106781186547,-0.707106781186548));
#920=DIRECTION('center_axis',(0.,1.,6.12323399573677E-16));
#921=DIRECTION('ref_axis',(0.,-6.12323399573677E-16,1.));
#922=DIRECTION('center_axis',(1.,0.,0.));
#923=DIRECTION('ref_axis',(0.,0.864443245463535,0.50273042017812));
#924=DIRECTION('center_axis',(-1.,0.,1.47190085865528E-16));
#925=DIRECTION('ref_axis',(-1.47190085865528E-16,0.,-1.));
#926=DIRECTION('',(1.,0.,0.));
#927=DIRECTION('center_axis',(1.,0.,0.));
#928=DIRECTION('ref_axis',(0.,-8.88178419700125E-16,1.));
#929=DIRECTION('',(1.,0.,0.));
#930=DIRECTION('center_axis',(1.,0.,0.));
#931=DIRECTION('ref_axis',(0.,0.864443245463535,0.502730420178121));
#932=DIRECTION('center_axis',(1.,0.,-1.47190085865528E-16));
#933=DIRECTION('ref_axis',(-1.47190085865528E-16,0.,-1.));
#934=DIRECTION('',(1.,0.,0.));
#935=DIRECTION('center_axis',(-1.,0.,0.));
#936=DIRECTION('ref_axis',(0.,0.,1.));
#937=DIRECTION('',(1.,0.,0.));
#938=DIRECTION('center_axis',(0.,-1.,-6.12323399573677E-16));
#939=DIRECTION('ref_axis',(0.,-6.12323399573677E-16,1.));
#940=DIRECTION('',(1.,2.08679447430019E-32,-3.40799400407219E-17));
#941=DIRECTION('',(1.47190085865528E-16,-6.12323399573677E-16,1.));
#942=DIRECTION('',(0.,6.12323399573677E-16,-1.));
#943=DIRECTION('',(1.,2.08679447430019E-32,-3.40799400407219E-17));
#944=DIRECTION('',(0.,6.12323399573677E-16,-1.));
#945=DIRECTION('',(1.,0.,0.));
#946=DIRECTION('',(0.,6.12323399573677E-16,-1.));
#947=DIRECTION('center_axis',(0.,-6.12323399573677E-16,1.));
#948=DIRECTION('ref_axis',(1.,0.,0.));
#949=DIRECTION('',(0.,-1.,-6.12323399573677E-16));
#950=DIRECTION('',(1.,0.,0.));
#951=DIRECTION('',(0.,-1.,-6.12323399573677E-16));
#952=DIRECTION('center_axis',(0.,1.,5.03224038804337E-16));
#953=DIRECTION('ref_axis',(0.,5.03224038804337E-16,-1.));
#954=DIRECTION('',(-1.47190085865528E-16,0.,-1.));
#955=DIRECTION('',(-1.,0.,3.40799400407219E-17));
#956=DIRECTION('',(0.,-5.03224038804337E-16,1.));
#957=DIRECTION('',(0.,-5.03224038804337E-16,1.));
#958=DIRECTION('',(-1.,0.,3.40799400407219E-17));
#959=DIRECTION('',(0.,0.,1.));
#960=DIRECTION('center_axis',(0.,0.869163832024043,-0.49452424925506));
#961=DIRECTION('ref_axis',(0.,-0.49452424925506,-0.869163832024044));
#962=DIRECTION('',(-1.27932299066831E-16,-0.49452424925506,-0.869163832024044));
#963=DIRECTION('',(0.,0.49452424925506,0.869163832024044));
#964=DIRECTION('center_axis',(1.,0.,0.));
#965=DIRECTION('ref_axis',(0.,6.12323399573677E-16,-1.));
#966=DIRECTION('',(0.,1.,0.));
#967=DIRECTION('center_axis',(1.,0.,0.));
#968=DIRECTION('ref_axis',(0.,6.12323399573677E-16,-1.));
#969=DIRECTION('',(0.,1.,0.));
#970=DIRECTION('center_axis',(-1.,0.,0.));
#971=DIRECTION('ref_axis',(0.,0.,1.));
#972=DIRECTION('',(0.,1.,0.));
#973=DIRECTION('center_axis',(-3.40799400407219E-17,0.,-1.));
#974=DIRECTION('ref_axis',(-1.,0.,3.40799400407219E-17));
#975=DIRECTION('center_axis',(1.,0.,-1.47190085865528E-16));
#976=DIRECTION('ref_axis',(-1.47190085865528E-16,0.,-1.));
#977=DIRECTION('',(0.,1.,0.));
#978=DIRECTION('center_axis',(-3.40799400407219E-17,0.,-1.));
#979=DIRECTION('ref_axis',(-1.,0.,3.40799400407219E-17));
#980=CARTESIAN_POINT('',(0.,0.,0.));
#981=CARTESIAN_POINT('Origin',(0.375,0.,0.));
#982=CARTESIAN_POINT('',(0.373680000000001,-4.04133443718627E-18,-0.033));
#983=CARTESIAN_POINT('Origin',(0.373680000000001,0.,0.));
#984=CARTESIAN_POINT('',(0.375,-3.87968105969889E-18,-0.0316800000000006));
#985=CARTESIAN_POINT('',(0.375,-3.87968105969889E-18,-0.0316800000000006));
#986=CARTESIAN_POINT('Origin',(0.375,0.,0.));
#987=CARTESIAN_POINT('Origin',(-0.373679999999999,0.,0.));
#988=CARTESIAN_POINT('',(-0.373679999999999,4.04133443718627E-18,-0.033));
#989=CARTESIAN_POINT('',(-0.373679999999999,-4.04133443718627E-18,0.0330000000000001));
#990=CARTESIAN_POINT('Origin',(-0.373679999999999,0.,0.));
#991=CARTESIAN_POINT('Origin',(-0.373679999999999,0.,0.));
#992=CARTESIAN_POINT('',(-0.375,-3.87968105969873E-18,0.0316799999999993));
#993=CARTESIAN_POINT('',(-0.373679999999999,-4.04133443718627E-18,0.033));
#994=CARTESIAN_POINT('Origin',(-0.375,0.,0.));
#995=CARTESIAN_POINT('Origin',(0.375,0.,0.));
#996=CARTESIAN_POINT('',(0.375,-4.04133443718627E-18,-0.033));
#997=CARTESIAN_POINT('Origin',(0.375,0.,0.));
#998=CARTESIAN_POINT('Origin',(-0.375,0.,0.));
#999=CARTESIAN_POINT('Origin',(-0.219,-0.058,0.188));
#1000=CARTESIAN_POINT('',(-0.219,-0.058,0.145));
#1001=CARTESIAN_POINT('Origin',(-0.219,-0.058,0.188));
#1002=CARTESIAN_POINT('',(-0.219,-0.0560073681444201,0.145));
#1003=CARTESIAN_POINT('',(-0.219,-0.058,0.145));
#1004=CARTESIAN_POINT('Origin',(-0.219,-0.0560073681444201,0.188));
#1005=CARTESIAN_POINT('Origin',(0.219,-0.058,0.188));
#1006=CARTESIAN_POINT('',(0.219,-0.058,0.145));
#1007=CARTESIAN_POINT('Origin',(0.219,-0.058,0.188));
#1008=CARTESIAN_POINT('',(0.219,-0.0560073681444201,0.145));
#1009=CARTESIAN_POINT('',(0.219,-0.058,0.145));
#1010=CARTESIAN_POINT('Origin',(0.219,-0.0560073681444201,0.188));
#1011=CARTESIAN_POINT('Origin',(0.219,-0.033,0.188));
#1012=CARTESIAN_POINT('',(0.219,-0.033,0.125));
#1013=CARTESIAN_POINT('',(0.219,-0.033,0.125));
#1014=CARTESIAN_POINT('Origin',(0.219,-0.033,0.188));
#1015=CARTESIAN_POINT('Origin',(-0.219,-0.033,0.188));
#1016=CARTESIAN_POINT('',(-0.219,-0.033,0.125));
#1017=CARTESIAN_POINT('',(-0.219,-0.033,0.125));
#1018=CARTESIAN_POINT('Origin',(-0.219,-0.033,0.188));
#1019=CARTESIAN_POINT('Origin',(0.375,3.1586992426743E-15,-1.88668252062438E-15));
#1020=CARTESIAN_POINT('',(-0.125,-0.0286824064567934,0.0504115022573944));
#1021=CARTESIAN_POINT('',(-0.125,-0.058,-1.88668252062438E-15));
#1022=CARTESIAN_POINT('Origin',(-0.125,3.1586992426743E-15,-1.88668252062438E-15));
#1023=CARTESIAN_POINT('',(-0.375,-0.058,-1.45849104128223E-16));
#1024=CARTESIAN_POINT('',(0.375,-0.058,-1.45849104128223E-16));
#1025=CARTESIAN_POINT('',(-0.375,-0.0286824064567934,0.0504115022573944));
#1026=CARTESIAN_POINT('Origin',(-0.375,3.1586992426743E-15,-1.88668252062438E-15));
#1027=CARTESIAN_POINT('',(0.375,-0.0286824064567934,0.0504115022573944));
#1028=CARTESIAN_POINT('Origin',(0.375,0.,0.));
#1029=CARTESIAN_POINT('',(-0.125,-0.033,-8.38883057415937E-17));
#1030=CARTESIAN_POINT('',(-0.125,-0.016319300225417,0.0286824064567934));
#1031=CARTESIAN_POINT('Origin',(-0.125,0.,0.));
#1032=CARTESIAN_POINT('',(-0.375,-0.016319300225417,0.0286824064567934));
#1033=CARTESIAN_POINT('',(0.375,-0.016319300225417,0.0286824064567934));
#1034=CARTESIAN_POINT('',(-0.375,-0.033,-8.38883057415937E-17));
#1035=CARTESIAN_POINT('Origin',(-0.375,0.,0.));
#1036=CARTESIAN_POINT('',(0.375,-0.033,-8.38883057415937E-17));
#1037=CARTESIAN_POINT('Origin',(0.375,3.1586992426743E-15,-1.88668252062438E-15));
#1038=CARTESIAN_POINT('',(0.375,-0.058,-1.45849104128223E-16));
#1039=CARTESIAN_POINT('',(0.375,-0.0286824064567934,0.0504115022573944));
#1040=CARTESIAN_POINT('Origin',(0.375,3.1586992426743E-15,-1.88668252062438E-15));
#1041=CARTESIAN_POINT('',(0.125,-0.058,-1.88668252062438E-15));
#1042=CARTESIAN_POINT('',(0.375,-0.058,-1.45849104128223E-16));
#1043=CARTESIAN_POINT('',(0.125,-0.0286824064567934,0.0504115022573944));
#1044=CARTESIAN_POINT('Origin',(0.125,3.1586992426743E-15,-1.88668252062438E-15));
#1045=CARTESIAN_POINT('',(0.375,-0.0286824064567934,0.0504115022573944));
#1046=CARTESIAN_POINT('Origin',(0.375,0.,0.));
#1047=CARTESIAN_POINT('',(0.375,-0.016319300225417,0.0286824064567934));
#1048=CARTESIAN_POINT('',(0.375,-0.033,-8.38883057415937E-17));
#1049=CARTESIAN_POINT('Origin',(0.375,0.,0.));
#1050=CARTESIAN_POINT('',(0.125,-0.016319300225417,0.0286824064567934));
#1051=CARTESIAN_POINT('',(0.375,-0.016319300225417,0.0286824064567934));
#1052=CARTESIAN_POINT('',(0.125,-0.033,-8.38883057415937E-17));
#1053=CARTESIAN_POINT('Origin',(0.125,0.,0.));
#1054=CARTESIAN_POINT('',(0.375,-0.033,-8.38883057415937E-17));
#1055=CARTESIAN_POINT('Origin',(0.375,-0.016319300225417,0.0286824064567934));
#1056=CARTESIAN_POINT('',(0.125,-0.016319300225417,0.0286824064567935));
#1057=CARTESIAN_POINT('',(0.375,-0.016319300225417,0.0286824064567934));
#1058=CARTESIAN_POINT('Origin',(0.375,-0.033,0.313));
#1059=CARTESIAN_POINT('',(0.125,-0.033,0.0580000000000048));
#1060=CARTESIAN_POINT('',(0.125,-0.033,0.313));
#1061=CARTESIAN_POINT('',(-0.125,-0.033,0.0580000000000049));
#1062=CARTESIAN_POINT('',(0.375,-0.033,0.0580000000000048));
#1063=CARTESIAN_POINT('',(-0.125,-0.033,0.313));
#1064=CARTESIAN_POINT('',(-0.375,-0.033,0.313));
#1065=CARTESIAN_POINT('',(-0.375,-0.033,0.313));
#1066=CARTESIAN_POINT('',(0.375,-0.033,0.313));
#1067=CARTESIAN_POINT('',(0.375,-0.033,0.313));
#1068=CARTESIAN_POINT('',(0.375,-0.033,0.313));
#1069=CARTESIAN_POINT('Origin',(0.375,-0.058,0.313));
#1070=CARTESIAN_POINT('',(-0.375,-0.058,0.313));
#1071=CARTESIAN_POINT('',(-0.375,-0.058,0.313));
#1072=CARTESIAN_POINT('',(0.375,-0.058,0.313));
#1073=CARTESIAN_POINT('',(0.375,-0.058,0.313));
#1074=CARTESIAN_POINT('',(0.375,-0.058,0.313));
#1075=CARTESIAN_POINT('Origin',(0.375,-0.058,-8.38883057415937E-17));
#1076=CARTESIAN_POINT('',(-0.125,-0.058,0.0580000000000049));
#1077=CARTESIAN_POINT('',(0.125,-0.058,0.0580000000000048));
#1078=CARTESIAN_POINT('',(0.125,-0.058,0.0580000000000048));
#1079=CARTESIAN_POINT('',(0.125,-0.058,-0.058000000000005));
#1080=CARTESIAN_POINT('',(0.375,-0.058,-8.38883057415937E-17));
#1081=CARTESIAN_POINT('',(-0.375,-0.058,-8.38883057415937E-17));
#1082=CARTESIAN_POINT('',(-0.125,-0.058,0.0580000000000049));
#1083=CARTESIAN_POINT('Origin',(0.375,-0.016319300225417,0.0286824064567934));
#1084=CARTESIAN_POINT('',(-0.125,-0.016319300225417,0.0286824064567935));
#1085=CARTESIAN_POINT('',(-0.375,-0.016319300225417,0.0286824064567934));
#1086=CARTESIAN_POINT('Origin',(0.375,0.,0.));
#1087=CARTESIAN_POINT('Origin',(-0.375,0.,0.));
#1088=CARTESIAN_POINT('Origin',(0.125,-0.058,0.0580000000000048));
#1089=CARTESIAN_POINT('',(0.125,-0.058,0.0580000000000048));
#1090=CARTESIAN_POINT('',(-0.125,-0.058,0.0580000000000049));
#1091=CARTESIAN_POINT('Origin',(0.125,-0.058,-0.058000000000005));
#1092=CARTESIAN_POINT('Origin',(-0.125,-0.058,0.0580000000000049));
#1093=CARTESIAN_POINT('Origin',(-0.219,-0.0580000000000002,-0.188));
#1094=CARTESIAN_POINT('',(-0.219,-0.0580000000000002,-0.231));
#1095=CARTESIAN_POINT('Origin',(-0.219,-0.0580000000000002,-0.188));
#1096=CARTESIAN_POINT('',(-0.219,-0.0529999999999998,-0.231));
#1097=CARTESIAN_POINT('',(-0.219,-0.0580000000000002,-0.231));
#1098=CARTESIAN_POINT('Origin',(-0.219,-0.0529999999999998,-0.188));
#1099=CARTESIAN_POINT('Origin',(0.219,-0.0580000000000002,-0.188));
#1100=CARTESIAN_POINT('',(0.219,-0.0580000000000002,-0.231));
#1101=CARTESIAN_POINT('Origin',(0.219,-0.0580000000000002,-0.188));
#1102=CARTESIAN_POINT('',(0.219,-0.0529999999999998,-0.231));
#1103=CARTESIAN_POINT('',(0.219,-0.0580000000000002,-0.231));
#1104=CARTESIAN_POINT('Origin',(0.219,-0.0529999999999998,-0.188));
#1105=CARTESIAN_POINT('Origin',(0.219,-0.0329999999999999,-0.188));
#1106=CARTESIAN_POINT('',(0.219,-0.0329999999999998,-0.251));
#1107=CARTESIAN_POINT('',(0.219,-0.0329999999999998,-0.251));
#1108=CARTESIAN_POINT('Origin',(0.219,-0.0329999999999999,-0.188));
#1109=CARTESIAN_POINT('Origin',(-0.219,-0.0329999999999999,-0.188));
#1110=CARTESIAN_POINT('',(-0.219,-0.0329999999999998,-0.251));
#1111=CARTESIAN_POINT('',(-0.219,-0.0329999999999998,-0.251));
#1112=CARTESIAN_POINT('Origin',(-0.219,-0.0329999999999999,-0.188));
#1113=CARTESIAN_POINT('Origin',(-0.375,0.,0.));
#1114=CARTESIAN_POINT('',(-0.1245,-0.033,6.36816335556624E-17));
#1115=CARTESIAN_POINT('',(-0.1245,-0.0163193002254169,-0.0286824064567934));
#1116=CARTESIAN_POINT('Origin',(-0.1245,0.,0.));
#1117=CARTESIAN_POINT('',(0.124500000000001,-0.0163193002254169,-0.0286824064567934));
#1118=CARTESIAN_POINT('',(-0.375,-0.0163193002254169,-0.0286824064567934));
#1119=CARTESIAN_POINT('',(0.124500000000001,-0.033,6.36816335556624E-17));
#1120=CARTESIAN_POINT('Origin',(0.124500000000001,0.,0.));
#1121=CARTESIAN_POINT('',(-0.375,-0.033,6.36816335556624E-17));
#1122=CARTESIAN_POINT('Origin',(-0.375,3.1586992426743E-15,1.88668252062438E-15));
#1123=CARTESIAN_POINT('',(-0.1245,-0.0286824064567934,-0.0504115022573944));
#1124=CARTESIAN_POINT('',(-0.1245,-0.058,1.88668252062438E-15));
#1125=CARTESIAN_POINT('Origin',(-0.1245,3.1586992426743E-15,1.88668252062438E-15));
#1126=CARTESIAN_POINT('',(0.124500000000001,-0.058,1.88668252062438E-15));
#1127=CARTESIAN_POINT('',(-0.375,-0.058,1.1033434695295E-16));
#1128=CARTESIAN_POINT('',(0.124500000000001,-0.0286824064567934,-0.0504115022573944));
#1129=CARTESIAN_POINT('Origin',(0.124500000000001,3.1586992426743E-15,1.88668252062438E-15));
#1130=CARTESIAN_POINT('',(-0.375,-0.0286824064567934,-0.0504115022573944));
#1131=CARTESIAN_POINT('Origin',(-0.375,-0.0329999999999998,-0.313));
#1132=CARTESIAN_POINT('',(-0.375,-0.033,-0.0580000000000012));
#1133=CARTESIAN_POINT('',(-0.1245,-0.033,-0.0580000000000012));
#1134=CARTESIAN_POINT('',(-0.375,-0.033,-0.0580000000000012));
#1135=CARTESIAN_POINT('',(-0.1245,-0.0329999999999998,-0.313));
#1136=CARTESIAN_POINT('',(0.124500000000001,-0.033,-0.0580000000000012));
#1137=CARTESIAN_POINT('',(0.124500000000001,-0.0329999999999998,-0.313));
#1138=CARTESIAN_POINT('',(0.375,-0.0329999999999999,-0.0580000000000012));
#1139=CARTESIAN_POINT('',(-0.375,-0.033,-0.0580000000000012));
#1140=CARTESIAN_POINT('',(0.375,-0.0329999999999998,-0.313));
#1141=CARTESIAN_POINT('',(0.375,-0.0329999999999998,-0.313));
#1142=CARTESIAN_POINT('',(-0.375,-0.0329999999999998,-0.313));
#1143=CARTESIAN_POINT('',(-0.375,-0.0329999999999998,-0.313));
#1144=CARTESIAN_POINT('',(-0.375,-0.0329999999999998,-0.313));
#1145=CARTESIAN_POINT('Origin',(-0.375,-0.0579999999999998,-0.313));
#1146=CARTESIAN_POINT('',(0.375,-0.0579999999999998,-0.313));
#1147=CARTESIAN_POINT('',(0.375,-0.0579999999999998,-0.313));
#1148=CARTESIAN_POINT('',(-0.375,-0.0579999999999998,-0.313));
#1149=CARTESIAN_POINT('',(-0.375,-0.0579999999999998,-0.313));
#1150=CARTESIAN_POINT('',(-0.375,-0.0579999999999998,-0.313));
#1151=CARTESIAN_POINT('Origin',(-0.375,-0.058,4.83735485663204E-17));
#1152=CARTESIAN_POINT('',(-0.1245,-0.058,-0.0580000000000012));
#1153=CARTESIAN_POINT('',(-0.1245,-0.058,-0.0580000000000012));
#1154=CARTESIAN_POINT('',(-0.375,-0.058,-0.0580000000000012));
#1155=CARTESIAN_POINT('',(-0.1245,-0.058,-0.0580000000000012));
#1156=CARTESIAN_POINT('',(-0.375,-0.058,4.83735485663204E-17));
#1157=CARTESIAN_POINT('',(0.375,-0.058,-0.0580000000000012));
#1158=CARTESIAN_POINT('',(0.375,-0.058,4.83735485663204E-17));
#1159=CARTESIAN_POINT('',(0.124500000000001,-0.058,-0.0580000000000012));
#1160=CARTESIAN_POINT('',(0.124500000000001,-0.058,-0.0580000000000012));
#1161=CARTESIAN_POINT('',(0.124500000000001,-0.058,-0.0580000000000012));
#1162=CARTESIAN_POINT('Origin',(-0.375,-0.0163193002254169,-0.0286824064567934));
#1163=CARTESIAN_POINT('',(-0.1245,-0.016319300225417,-0.0286824064567935));
#1164=CARTESIAN_POINT('',(0.124500000000001,-0.0163193002254169,-0.0286824064567934));
#1165=CARTESIAN_POINT('Origin',(-0.375,0.,0.));
#1166=CARTESIAN_POINT('',(-0.375,-0.058,-0.0580000000000012));
#1167=CARTESIAN_POINT('Origin',(0.375,0.,0.));
#1168=CARTESIAN_POINT('',(0.375,-0.058,-0.0580000000000012));
#1169=CARTESIAN_POINT('Origin',(0.124500000000001,-0.058,-0.0580000000000012));
#1170=CARTESIAN_POINT('',(0.124500000000001,-0.058,-0.0580000000000012));
#1171=CARTESIAN_POINT('Origin',(0.124500000000001,-0.058,-0.0580000000000012));
#1172=CARTESIAN_POINT('Origin',(-0.1245,-0.058,-0.0580000000000012));
#1173=CARTESIAN_POINT('',(-0.1245,-0.058,-0.0580000000000012));
#1174=CARTESIAN_POINT('Origin',(-0.1245,-0.058,-0.0580000000000012));
#1175=UNCERTAINTY_MEASURE_WITH_UNIT(LENGTH_MEASURE(0.000393700787401575),
#1180,'DISTANCE_ACCURACY_VALUE',
'Maximum model space distance between geometric entities at asserted c
onnectivities');
#1176=UNCERTAINTY_MEASURE_WITH_UNIT(LENGTH_MEASURE(0.000393700787401575),
#1180,'DISTANCE_ACCURACY_VALUE',
'Maximum model space distance between geometric entities at asserted c
onnectivities');
#1177=(
GEOMETRIC_REPRESENTATION_CONTEXT(3)
GLOBAL_UNCERTAINTY_ASSIGNED_CONTEXT((#1175))
GLOBAL_UNIT_ASSIGNED_CONTEXT((#1180,#1184,#1185))
REPRESENTATION_CONTEXT('','3D')
);
#1178=(
GEOMETRIC_REPRESENTATION_CONTEXT(3)
GLOBAL_UNCERTAINTY_ASSIGNED_CONTEXT((#1176))
GLOBAL_UNIT_ASSIGNED_CONTEXT((#1180,#1184,#1185))
REPRESENTATION_CONTEXT('','3D')
);
#1179=DIMENSIONAL_EXPONENTS(1.,0.,0.,0.,0.,0.,0.);
#1180=(
CONVERSION_BASED_UNIT('inch',#1183)
LENGTH_UNIT()
NAMED_UNIT(#1179)
);
#1181=(
LENGTH_UNIT()
NAMED_UNIT(*)
SI_UNIT(.MILLI.,.METRE.)
);
#1182=(
LENGTH_UNIT()
NAMED_UNIT(*)
SI_UNIT($,.METRE.)
);
#1183=LENGTH_MEASURE_WITH_UNIT(LENGTH_MEASURE(25.4),#1181);
#1184=(
NAMED_UNIT(*)
PLANE_ANGLE_UNIT()
SI_UNIT($,.RADIAN.)
);
#1185=(
NAMED_UNIT(*)
SI_UNIT($,.STERADIAN.)
SOLID_ANGLE_UNIT()
);
#1186=SHAPE_DEFINITION_REPRESENTATION(#1187,#1188);
#1187=PRODUCT_DEFINITION_SHAPE('',$,#1190);
#1188=SHAPE_REPRESENTATION('',(#708),#1177);
#1189=PRODUCT_DEFINITION_CONTEXT('part definition',#1194,'design');
#1190=PRODUCT_DEFINITION('1603A2_Surface-Mount Hinge with Holes',
'1603A2_Surface-Mount Hinge with Holes',#1191,#1189);
#1191=PRODUCT_DEFINITION_FORMATION('',$,#1196);
#1192=PRODUCT_RELATED_PRODUCT_CATEGORY(
'1603A2_Surface-Mount Hinge with Holes',
'1603A2_Surface-Mount Hinge with Holes',(#1196));
#1193=APPLICATION_PROTOCOL_DEFINITION('international standard',
'automotive_design',2009,#1194);
#1194=APPLICATION_CONTEXT(
'Core Data for Automotive Mechanical Design Process');
#1195=PRODUCT_CONTEXT('part definition',#1194,'mechanical');
#1196=PRODUCT('1603A2_Surface-Mount Hinge with Holes',
'1603A2_Surface-Mount Hinge with Holes',$,(#1195));
#1197=PRESENTATION_STYLE_ASSIGNMENT((#1198));
#1198=SURFACE_STYLE_USAGE(.BOTH.,#1199);
#1199=SURFACE_SIDE_STYLE('',(#1200));
#1200=SURFACE_STYLE_FILL_AREA(#1201);
#1201=FILL_AREA_STYLE('Steel - Satin',(#1202));
#1202=FILL_AREA_STYLE_COLOUR('Steel - Satin',#1203);
#1203=COLOUR_RGB('Steel - Satin',0.627450980392157,0.627450980392157,0.627450980392157);
ENDSEC;
END-ISO-10303-21;
